<?xml version="1.0" encoding="utf-8"?>
<!-- Generator: Adobe Illustrator 16.0.0, SVG Export Plug-In . SVG Version: 6.00 Build 0)  -->
<!DOCTYPE svg PUBLIC "-//W3C//DTD SVG 1.1//EN" "http://www.w3.org/Graphics/SVG/1.1/DTD/svg11.dtd">
<svg version="1.1" xmlns="http://www.w3.org/2000/svg" xmlns:xlink="http://www.w3.org/1999/xlink" x="0px" y="0px"
	 width="113.386px" height="198.425px" viewBox="0 0 113.386 198.425" enable-background="new 0 0 113.386 198.425"
	 xml:space="preserve">
<g id="Livello_1">
	<g id="blonde">
		<g>
			<path fill="#FDE651" d="M26.25,92.367c2.51-2.302,5.231-4.185,7.95-6.277"/>
			<g>
				<path fill="#D5DE2D" d="M28.018,94.134c2.354-2.125,4.929-3.961,7.444-5.886c1.08-0.827,1.65-2.134,0.897-3.42
					c-0.625-1.066-2.335-1.728-3.42-0.897c-2.852,2.182-5.788,4.258-8.456,6.668C22.084,92.765,25.632,96.29,28.018,94.134
					L28.018,94.134z"/>
			</g>
		</g>
		<g>
			<g>
				<path fill="#D5DE2D" d="M48.746,85.08c0.803-2.101,2.146-3.976,3.306-5.889c-1.439-0.841-2.878-1.682-4.317-2.523
					c-0.839,1.409-2.123,2.191-3.738,2.408c-1.354,0.182-2.07,1.897-1.746,3.075c0.397,1.445,1.726,1.928,3.075,1.746
					c2.824-0.38,5.292-2.299,6.726-4.706c1.656-2.778-2.648-5.275-4.317-2.523c-1.402,2.313-2.839,4.543-3.81,7.083
					c-0.487,1.274,0.528,2.74,1.746,3.075C47.081,87.213,48.26,86.351,48.746,85.08L48.746,85.08z"/>
			</g>
		</g>
		<g>
			<g>
				<path fill="#D5DE2D" d="M45.498,82.208c-3.325-0.384-6.415-0.954-9.72-0.191c-4.116,0.95-8.105,4.433-11.574,6.693
					c-3.087,2.012-6.557,3.974-8.767,7.013c-2.419,3.326-2.939,7.75-5.594,10.88c-1.744,2.055,0.506,5.559,3.029,3.926
					c7.043-4.557,14.399-10.02,18.785-17.313c1.666-2.771-2.658-5.283-4.317-2.523c-3.93,6.536-10.692,11.443-16.991,15.52
					c1.01,1.309,2.02,2.617,3.029,3.926c1.7-2.003,2.694-4.237,3.678-6.654c1.619-3.981,3.521-6.376,7.118-8.79
					c3.145-2.11,6.345-4.149,9.571-6.132c4.091-2.514,7.25-1.874,11.754-1.354C48.698,87.577,48.662,82.573,45.498,82.208
					L45.498,82.208z"/>
			</g>
		</g>
		<g>
			<g>
				<path fill="#D5DE2D" d="M13.063,104.241c-1.729-4.093-1.191-8.274-0.866-12.558c0.354-4.651,0.248-9.208,1.145-13.818
					c1.574-8.098,5.691-14.186,11.212-20.074c10.064-10.732,24.623-15.653,39.277-13.547c7.512,1.08,14.463,4.373,20.632,8.684
					c6.086,4.254,9.203,9.957,12.985,16.132c1.852,3.023,3.632,5.917,4.667,9.341c1.178,3.895,0.393,8.531,0.721,12.557
					c0.114,1.396,0.88,10.495-1.117,8.584c-1.506-1.441-2.789-2.643-4.805-3.29c-2.579-0.827-3.919,2.396-2.433,4.178
					c1.195,1.433,1.895,2.94,3.253,4.227c2.339,2.216,5.88-1.313,3.535-3.535c-1.285-1.218-2.118-2.867-3.253-4.227
					c-0.811,1.393-1.621,2.786-2.433,4.179c2.518,0.807,3.523,3.754,6.297,4.244c2.609,0.462,4.407-1.734,5.476-3.807
					c1.598-3.102,0.819-7.268,0.479-10.554c-0.479-4.637,0.054-9.292-0.899-13.886c-0.896-4.321-3.748-8.212-6.005-11.897
					c-2.221-3.625-4.137-7.233-6.909-10.488c-6.008-7.052-15.319-11.703-24.064-14.229c-15.949-4.606-36.609-0.069-47.809,12.568
					c-2.892,3.263-5.939,6.264-8.376,9.901c-2.667,3.981-4.141,9.006-5.253,13.608c-1.192,4.937-1.081,10.111-1.323,15.147
					c-0.262,5.439-0.611,9.972,1.548,15.082C9.997,109.725,14.303,107.173,13.063,104.241L13.063,104.241z"/>
			</g>
		</g>
		<g>
			<g>
				<path fill="#D5DE2D" d="M100.563,100.207c-0.171-0.045-0.339-0.095-0.506-0.15c-0.565-0.186,0.497,0.242-0.028-0.01
					c-0.147-0.071-0.287-0.157-0.426-0.244c-0.479-0.298,0.419,0.368,0.001,0.003c-0.118-0.103-0.222-0.221-0.324-0.338
					c0.443,0.505,0.129,0.148,0.037-0.008c-0.281-0.478,0.185,0.545-0.002,0.012c-0.075-0.212-0.112-0.436-0.145-0.657
					c-0.2-1.351-1.884-2.074-3.076-1.746c-1.432,0.394-1.945,1.729-1.746,3.075c0.374,2.521,2.535,4.264,4.885,4.885
					c1.317,0.348,2.712-0.424,3.076-1.746C102.668,101.979,101.88,100.555,100.563,100.207L100.563,100.207z"/>
			</g>
		</g>
		<g>
			<g>
				<path fill="#D5DE2D" d="M98.108,96.667c-2.21-2.013-3.184-4.989-5.022-7.324c-2.238-2.844-4.788-5.287-7.4-7.778
					c-4.005-3.819-9.801-7.456-15.532-6.832c-5.324,0.58-8.431,5.491-11.875,8.97c-0.955,0.964-1.711,1.39-2.952,1.75
					c-2.698,0.784-1.231,0.631,0.345-0.22c2.43-1.312,3.969-3.179,4.79-5.803c0.966-3.086-3.862-4.396-4.821-1.329
					c-1.084,3.465-10.707,5.653-6.47,10.801c2.785,3.385,8.975,1.603,11.774-0.89c2.11-1.88,3.836-4.116,5.827-6.116
					c3.942-3.96,8.597-1.65,12.552,0.944c3.485,2.287,6.558,5.659,9.253,8.8c2.308,2.689,3.351,6.152,5.997,8.562
					C96.951,102.368,100.497,98.842,98.108,96.667L98.108,96.667z"/>
			</g>
		</g>
		<g>
			<g>
				<path fill="#D5DE2D" d="M53.658,75.22c-7.909-0.673-15.286-0.861-22.94,1.486c-4.799,1.472-8.32,2.843-8.851,8.337
					c-0.131,1.361,1.237,2.497,2.5,2.5c5.89,0.014,12.175,0.245,17.581-2.434c2.443-1.21,0.98-4.438-1.262-4.659
					c-4.965-0.488-9.927-0.46-14.91-0.424c-2.566,0.019-6.616-0.919-8.925,0.614c-2.283,1.515-3.133,3.351-3.077,6.088
					c0.042,2.067,0.549,3.881-0.318,5.919c-0.782,1.837-2.649,3.276-4.038,4.646c1.422,0.589,2.845,1.178,4.268,1.768
					c-0.328-2.506,1.335-3.373,3.034-4.718c2.527-2.001-1.037-5.515-3.535-3.535c-2.789,2.209-4.993,4.471-4.499,8.253
					c0.269,2.054,2.564,3.449,4.268,1.768c3.41-3.364,6.929-7.238,6.083-12.476c-0.787-4.874,5.646-3.319,8.592-3.34
					c4.367-0.031,8.709,0.01,13.059,0.438c-0.42-1.553-0.841-3.106-1.262-4.659c-4.505,2.232-10.163,1.763-15.057,1.751
					c0.833,0.833,1.667,1.667,2.5,2.5c0.366-3.79,9.904-4.886,12.579-5.211c4.691-0.57,9.531-0.011,14.212,0.387
					C56.873,80.493,56.846,75.491,53.658,75.22L53.658,75.22z"/>
			</g>
		</g>
		<g>
			<g>
				<path fill="#D5DE2D" d="M18.839,92.683c0.691-2.539,1.27-4.944,1.46-7.568c-1.667,0-3.333,0-5,0
					c0.027,3.92,1.938,8.807,6.501,5.506c1.951-1.412,1.376-4.604-1.262-4.659c-3.605-0.075-6.685,1.287-10.059,2.39
					c1.025,0.582,2.05,1.164,3.075,1.746c-1.31-4.56,0.343-9.422,1.175-13.944c1.059-5.752,3.561-10.149,7.895-14.053
					c3.452-3.109,7.795-5.276,11.916-7.34c4.76-2.384,9.553-4.905,14.782-6.052c5.226-1.146,10.242,1.326,15.21,2.485
					c5.314,1.239,12.048,1.607,15.571,6.387c1.277,1.733,2.036,3.8,3.451,5.45c1.693,1.974,3.631,3.633,5.548,5.381
					c4.063,3.705,6.313,9.169,8.06,14.254c1.031,3,1.609,5.984,1.785,9.15c0.029,0.516-0.202,4.101-0.148,4.111
					c-2.002-0.38-3.704-3.419-4.685-4.904c-4.574-6.928-8.287-14-16.604-17.169c-10.479-3.993-20.07,1.094-30.641,1.157
					c-9.673,0.057-21.141-4.796-29.941,0.833c1.14,0.299,2.28,0.598,3.42,0.897c-1.936-3.784,2.942-10.151,5.445-12.585
					c3.063-2.979,7.936-4.102,11.9-5.239c4.606-1.321,9.068-2.729,13.555-4.417c5.077-1.909,9.066-2.019,13.85,0.628
					c7.488,4.144,16.211,5.284,21.472,12.661c2.037,2.856,3.491,6.166,4.988,9.322c2.189,4.619,4.825,9.634,3.486,14.872
					c1.394-0.368,2.786-0.735,4.179-1.103c-3.503-4.331-4.029-10.206-7.706-14.561c-3.528-4.178-10.156-7.02-15.017-9.149
					c-5.087-2.229-10.515-2.545-15.583-0.126c-7.824,3.734-15.722,2.41-24.173,2.644c-3.562,0.099-6.914,0.679-10.465-0.016
					c-4.043-0.791,0.621-2.325,2.014-3.06c1.682-0.886,3.673-1.312,5.508-1.761c7.277-1.778,14.63-2.153,21.716-4.833
					c3.87-1.464,6.831-3.366,11.121-2.274c2.83,0.72,5.075,3.473,7.34,5.16c1.747,1.302,3.353,2.227,5.451,2.795
					c2.249,0.61,6.543,0.386,7.396,3.134c0.582-1.025,1.164-2.05,1.746-3.075c-2.598,0.646-6.408-0.951-9.064-1.306
					c-3.042-0.406-6.141-0.603-9.13-1.309c-4.227-0.998-8.859-2.521-13.253-1.683c-5.089,0.972-7.756,5.732-13.063,5.757
					c-4.076,0.019-10.309-0.05-14.041-1.627c0.299,1.14,0.598,2.28,0.897,3.42c1.669-2.28,8.39-1.063,10.744-0.9
					c3.248,0.224,6.236,0.344,9.466-0.151c4.022-0.617,7.3-2.489,10.216-5.227c2.89-2.713,12.021-1.778,14.889,0.271
					c-0.169-1.309-0.337-2.618-0.506-3.926c-0.614,0.358-1.229,0.716-1.844,1.074c-2.925,1.35-0.383,5.659,2.523,4.317
					c1.25-0.577,1.782-0.99,2.855-1.856c1.356-1.094,0.677-3.082-0.506-3.926c-4.518-3.229-9.893-2.267-15.083-1.915
					c-5.049,0.343-7.749,4.776-12.534,6.084c-7.362,2.012-19.229-3.621-24.539,3.632c-0.733,1.001-0.273,2.926,0.897,3.42
					c3.983,1.683,8.305,1.601,12.56,1.906c5.377,0.385,9.261,0.585,13.554-3.07c5.549-4.724,12.164-1.138,18.448-0.22
					c3.356,0.49,6.722,0.76,10.053,1.427c2.906,0.582,4.839,1.363,7.791,0.628c1.29-0.321,2.142-1.797,1.746-3.075
					c-1.581-5.094-6.295-5.629-10.889-6.626c-3.354-0.728-5.928-3.755-8.585-5.773c-2.802-2.127-6.077-2.871-9.535-2.733
					c-3.548,0.141-6.936,2.252-10.166,3.475c-4.366,1.652-9.108,2.363-13.699,3.079c-5.36,0.835-16.917,2.121-18.973,8.557
					c-1.772,5.551,4.668,7.079,8.8,7.558c4.4,0.51,9.154-0.415,13.598-0.367c4.396,0.048,9.674,0.835,13.962-0.306
					c4.267-1.136,7.78-3.89,12.301-4.084c5.116-0.22,10.166,3.488,14.423,5.889c4.35,2.453,6.718,5.32,8.495,9.971
					c1.142,2.988,2.281,5.768,4.308,8.273c1.204,1.489,3.746,0.587,4.179-1.103c2.375-9.294-4.033-20.477-8.979-28.046
					c-2.543-3.893-6.113-6.711-10.177-8.879c-3.189-1.702-6.817-2.559-10.127-3.987c-2.495-1.076-4.675-2.842-7.278-3.693
					c-5.801-1.898-11.147,0.109-16.618,2.198c-6.1,2.329-12.698,3.313-18.643,6.052c-7.289,3.358-16.325,13.883-12.014,22.309
					c0.603,1.178,2.32,1.601,3.42,0.897c5.532-3.538,12.742-1.467,18.851-0.759c6.534,0.758,12.854,0.839,19.283-0.647
					c7.789-1.8,14.844-2.689,21.923,1.81c4.897,3.113,7.344,8.247,10.289,12.981c2.747,4.416,10.642,11.926,13.674,3.636
					c2.762-7.552-1.942-18.324-5.276-24.815c-2.479-4.828-6.324-7.92-10.081-11.678c-4.099-4.098-4.821-8.821-10.672-11.232
					c-5.601-2.309-11.728-2.909-17.482-4.772c-5.521-1.787-11.039-1.378-16.458,0.475c-9.637,3.294-20.561,8.868-27.478,16.45
					c-3.732,4.09-5.373,9.185-6.354,14.517C8.735,81.2,7.264,86.311,8.733,91.427c0.362,1.262,1.769,2.173,3.075,1.746
					c2.914-0.953,5.594-2.276,8.73-2.211c-0.42-1.553-0.841-3.106-1.262-4.659c0.989-0.715,1.039,1.199,1.022-1.188
					c-0.022-3.257-4.769-3.181-5,0c-0.16,2.2-0.709,4.139-1.281,6.239C13.17,94.47,17.994,95.79,18.839,92.683L18.839,92.683z"/>
			</g>
		</g>
		<g>
			<g>
				<path fill="#D5DE2D" d="M17.46,82.055c-0.006-0.587-0.036-1.173-0.055-1.76c-0.021-0.634,0.012-1.291,0.105-1.693
					c-1.607,0-3.214,0-4.821,0c0.066,0.291,0.071,0.315,0.012,0.071c0.005,0.174,0,0.347-0.014,0.521
					c0.04-0.229,0.032-0.193-0.022,0.109c-0.033,0.162-0.072,0.323-0.115,0.482c-0.338,1.319,0.416,2.709,1.746,3.075
					c1.295,0.356,2.737-0.426,3.075-1.746c0.327-1.278,0.428-2.547,0.14-3.842c-0.536-2.406-4.269-2.38-4.821,0
					c-0.372,1.6-0.246,3.162-0.229,4.783c0.014,1.363,1.126,2.5,2.5,2.5C16.312,84.555,17.474,83.418,17.46,82.055L17.46,82.055z"/>
			</g>
		</g>
		<g>
			<g>
				<path fill="#D5DE2D" d="M16.064,86.592c0-1.14,0-2.28,0-3.42c0-1.363-1.137-2.5-2.5-2.5c-1.38,0-2.477,1.138-2.5,2.5
					c-0.02,1.148-0.051,2.254,0.551,3.286c0.686,1.175,2.246,1.585,3.42,0.897c1.175-0.688,1.584-2.243,0.897-3.42
					c0.117,0.353,0.137,0.392,0.063,0.118c0.044,0.35,0.058,0.378,0.042,0.083c-0.008-0.321,0.022-0.644,0.027-0.964
					c-1.667,0-3.333,0-5,0c0,1.14,0,2.28,0,3.42c0,1.363,1.137,2.5,2.5,2.5S16.064,87.955,16.064,86.592L16.064,86.592z"/>
			</g>
		</g>
		<g>
			<g>
				<path fill="#D5DE2D" d="M9.293,92.944c0.081-4.62,0.934-9.963,2.423-14.342c1.041-3.061-3.79-4.364-4.821-1.329
					c-1.625,4.78-2.513,10.616-2.602,15.671C4.237,96.17,9.237,96.165,9.293,92.944L9.293,92.944z"/>
			</g>
		</g>
		<g>
			<g>
				<path fill="#D5DE2D" d="M16.496,81.135c2.748,0.084,5.418,0.44,8.131,0.888c2.207,0.365,4.542-2.385,2.432-4.178
					c-1.177-1-4.884-2.643-4.383-4.409c-1.607,0-3.214,0-4.821,0c1.333,4.516-0.331,9.613,0.926,14.183
					c0.826,3.003,4.034,1.008,5.301,2.486c-0.214-0.811-0.429-1.622-0.643-2.432c-0.103,0.701-2.476,2.262-2.948,2.818
					c-1.592,1.875-1.485,4.437-2.733,6.496c1.523,0.642,3.046,1.284,4.569,1.926c0.448-1.112,0.82-1.706,1.047-2.862
					c0.395-2.016-1.144-3.353-3.075-3.075c-2.109,0.303-3.721,1.337-5.291,2.737c-2.412,2.149,1.137,5.673,3.535,3.535
					c0.83-0.908,1.858-1.392,3.085-1.451c-1.025-1.025-2.05-2.05-3.075-3.075c-0.19,0.97-0.679,1.947-1.047,2.862
					c-1.089,2.706,3.151,4.267,4.569,1.926c0.863-1.425,1.296-2.728,1.685-4.357c0.537-2.25,1.895-2.289,3.185-3.688
					c1.256-1.361,2.047-3.292,0.671-4.896c-0.758-0.885-1.355-1.149-2.473-1.463c-0.55-0.089-1.103-0.141-1.66-0.152
					c-1.237-0.242-1.198,0.118,0.119,1.08c-0.434-4.546,0.366-9.547-0.927-13.927c-0.699-2.368-4.14-2.405-4.821,0
					c-1.389,4.897,2.47,6.554,5.669,9.273c0.811-1.393,1.622-2.786,2.432-4.178c-3.151-0.521-6.263-0.969-9.46-1.067
					C13.27,76.036,13.279,81.036,16.496,81.135L16.496,81.135z"/>
			</g>
		</g>
		<g>
			<g>
				<path fill="#D5DE2D" d="M25.919,71.852c3.224,0,3.224-5,0-5S22.695,71.852,25.919,71.852L25.919,71.852z"/>
			</g>
		</g>
		<g>
			<g>
				<path fill="#D5DE2D" d="M37.157,55.727c5.741-0.283,10.581-3.224,16.021-4.696c3.109-0.842,1.788-5.665-1.329-4.821
					c-4.933,1.335-9.505,4.262-14.691,4.518C33.948,50.885,33.933,55.886,37.157,55.727L37.157,55.727z"/>
			</g>
		</g>
		<g>
			<g>
				<path fill="#D5DE2D" d="M44.394,53.414c-0.626,0.806-1.567,1.238-2.234,2.025c-1.612,1.903-0.103,4.744,2.432,4.178
					c4.499-1.003,8.612-3.229,13.193-3.909c3.18-0.472,1.824-5.29-1.329-4.821c-4.581,0.68-8.694,2.906-13.193,3.909
					c0.811,1.393,1.622,2.786,2.432,4.178c0.663-0.782,1.597-1.204,2.234-2.025C49.88,54.435,46.369,50.869,44.394,53.414
					L44.394,53.414z"/>
			</g>
		</g>
		<g>
			<g>
				<path fill="#D5DE2D" d="M48.674,64.662c3.002-0.195,5.649-1.275,8.552-1.974c-1.025-1.025-2.05-2.05-3.075-3.075
					c-0.386,2.86-3.479,5.623-2.602,8.719c0.621,2.194,2.334,4.454,4.956,3.847c2.724-0.631,4.675-2.583,5.984-4.985
					c0.873-1.6,3.149-1.996,4.788-2.655c1.053-0.416,2.101-0.846,3.142-1.292c0.675-0.283,0.279-1.13,0.596,0.017
					c0.215-0.811,0.429-1.622,0.644-2.433c1.129-0.458,1.006-0.591-0.368-0.4c-1.242,0-2.483,0-3.726,0c-2.504,0-5.009,0-7.513,0
					c-4.658,0-9.043,0.386-13.611,0.532c3.216-0.103,3.226-5.104,0-5c-7.68,0.246-2.702,9.957,2.594,10.592
					c2.268,0.271,3.638-1.001,5.87-1.197c2.901-0.254,5.994,0.073,8.911,0.073c3.314,0,8.581,1.163,11.378-1.064
					c0.675-0.537,0.859-1.648,0.643-2.432c-1.771-6.413-7.251-3.279-11.458-1.585c-1.873,0.754-6.037,1.952-6.388,4.429
					c-0.255,1.795-1.718,2.399-0.336-0.137c0.653-1.197,1.136-2.344,1.319-3.699c0.251-1.862-1.046-3.564-3.076-3.075
					c-2.418,0.583-4.714,1.632-7.223,1.795C45.473,59.87,45.453,64.871,48.674,64.662L48.674,64.662z"/>
			</g>
		</g>
		<g>
			<g>
				<path fill="#D5DE2D" d="M96.441,99.064c-0.446-0.453-0.854-2.084-1.285-2.705c-1.125-1.623-2.358-3.154-3.672-4.624
					c-2.365-2.648-3.397-5.727-6.438-7.79c-1.483-1.006-3.952,0.305-3.762,2.159c0.348,3.375,2.447,5.13,4.711,7.491
					c1.933,2.017,5.593-0.681,3.926-3.029c-1.949-2.747-5.459-4.859-7.023-7.605c-1.335-2.344-3.713-4.839-5.879-6.484
					c-1.528-1.16-2.307-2.902-3.821-4.084c-1.213-0.946-2.381-1.921-3.646-2.796c-2.3-1.593-5.31-2.021-7.932-1.259
					c-2.681,0.779-2.202,4.972,0.665,4.911c2.846-0.061,5.661-0.449,8.506-0.528c3.138-0.088,4.934,2.341,6.981,4.247
					c1.587,1.476,3.521,2.416,5.46,3.331c2.811,1.327,4.277,3.167,6.183,5.48c1.364,1.656,4.43,0.329,4.268-1.768
					c-0.371-4.793-2.09-11.211-4.948-15.152c-1.885-2.6-5.726-0.412-4.316,2.523c2.854,5.95,8.537,7.892,13.999,10.813
					c4.958,2.652,6.377-2.869,4.243-6.374c-3.773-6.202-6.778-13.01-11.83-18.332c-5.44-5.732-13.049-10.348-20.76-11.767
					c-3.151-0.58-4.498,4.238-1.33,4.821c7.523,1.385,14.399,6.104,19.656,11.642c2.396,2.524,3.771,5.554,5.396,8.572
					c0.727,1.35,1.586,2.574,2.258,3.959c0.404,0.833,3.085,4.015,2.737,4.854c0.582-0.582,1.164-1.164,1.746-1.746
					c-0.737,0.116-4.094-2.136-4.898-2.529c-3.042-1.484-5.417-3.346-6.901-6.438c-1.438,0.841-2.878,1.682-4.316,2.523
					c2.303,3.176,3.962,8.719,4.265,12.629c1.423-0.589,2.845-1.179,4.268-1.768c-1.845-2.241-3.235-4.167-5.817-5.598
					c-3.222-1.785-5.851-3.264-8.561-5.807c-4.702-4.411-10.447-2.715-16.287-2.59c0.222,1.637,0.443,3.274,0.665,4.911
					c5.061-1.471,8.052,5.39,11.545,7.635c1.54,0.99,3.769,4.136,4.639,5.662c1.514,2.658,4.668,4.094,6.471,6.634
					c1.309-1.01,2.617-2.02,3.926-3.029c-0.984-1.027-3.088-2.421-3.246-3.956c-1.254,0.72-2.508,1.439-3.762,2.159
					c2.419,1.641,3.528,4.816,5.427,7.008c1.98,2.288,2.959,5.302,4.957,7.329C95.172,104.899,98.706,101.361,96.441,99.064
					L96.441,99.064z"/>
			</g>
		</g>
		<g>
			<g>
				<path fill="#D5DE2D" d="M72.29,44.41c-2.023-1.692-4.317-2.285-6.891-2.658c-3.33-0.482-6.656-0.963-10.024-0.657
					c-3.184,0.289-3.212,5.292,0,5c2.407-0.218,4.729-0.04,7.12,0.279c1.946,0.26,4.676,0.248,6.26,1.571
					C71.21,49.998,74.767,46.48,72.29,44.41L72.29,44.41z"/>
			</g>
		</g>
		<g>
			<g>
				<path fill="#D5DE2D" d="M33.923,81.934c3.161-0.372,6.329-0.106,9.5-0.083c3.225,0.023,3.223-4.977,0-5
					c-3.171-0.022-6.339-0.289-9.5,0.083C30.761,77.306,30.725,82.31,33.923,81.934L33.923,81.934z"/>
			</g>
		</g>
		<g>
			<g>
				<path fill="#D5DE2D" d="M20.512,86.769c-0.254,0.798-1.032,1.469-1.725,2.128c-0.984,0.935-1.953,1.903-2.606,3.108
					c-0.538,0.993-0.423,2.216,0.391,3.029c1.045,1.046,2.469,0.846,3.535,0c1.586-1.258,2.222-3.563,2.726-5.437
					c0.839-3.118-3.984-4.439-4.821-1.329c-0.322,1.196-0.665,2.615-1.44,3.23c1.309,1.01,2.618,2.02,3.926,3.029
					c0.526-0.971,1.447-1.729,2.287-2.539c1.148-1.107,2.061-2.362,2.548-3.892C26.315,85.017,21.487,83.709,20.512,86.769
					L20.512,86.769z"/>
			</g>
		</g>
		<g>
			<g>
				<path fill="#D5DE2D" d="M20.929,92.515c0.122,0.88-0.473,1.82-0.2,2.813c0.307,1.115,1.201,1.815,2.279,2.1
					c0-1.607,0-3.214,0-4.821c-3.676,0.658-7.4,0.973-11.094,1.489c-1.321,0.185-2.631,1.303-2.985,2.59
					c-0.44,1.602,0.724,3.077,0.744,4.665c0.04,3.222,5.04,3.226,5,0c-0.015-1.207-0.142-2.301-0.564-3.436
					c-0.313-1.126-0.601-0.792-0.865,1.003c0.49-0.144,1.17-0.078,1.677-0.156c3.134-0.484,6.293-0.774,9.417-1.333
					c2.507-0.449,2.273-4.22,0-4.821c-0.12-0.032-0.24-0.063-0.359-0.095c0.498,0.383,0.996,0.766,1.494,1.149
					c0.407,0.61,0.12,0.742,0.295-0.229c0.143-0.793,0.093-1.456-0.017-2.246C25.31,88.003,20.492,89.363,20.929,92.515
					L20.929,92.515z"/>
			</g>
		</g>
		<g>
			<g>
				<path fill="#D5DE2D" d="M95.846,94.515c0.388-0.36,0.774-0.721,1.161-1.081c-1.766-0.044-3.291,2.21-2.158,3.762
					c1.579,2.166,8.876,7.312,10.047,1.934c0.897-4.125,0.786-8.289,0.688-12.485c-0.059-2.502,0.471-5.456-0.841-7.734
					c-0.438-0.762-1.282-1.239-2.158-1.238c-1.605,0.001-2.942,0.973-3.488,2.514c-1.164,3.292-5.542,5.844-8.838,6.504
					c1.056,0.804,2.11,1.607,3.165,2.411c-0.154-2.094,0.488-3.999,0.334-6.083c-0.144-1.946-1.664-3.69-2.676-5.262
					c-2.234-3.474-3.872-7.409-7.057-10.173c-2.423-2.103-5.975,1.418-3.535,3.535c2.368,2.055,3.962,5,5.472,7.712
					c0.782,1.406,1.63,2.735,2.514,4.079c0.841,1.28-0.17,4.587-0.052,6.192c0.125,1.693,1.494,2.746,3.165,2.411
					c2.848-0.571,5.242-2.107,7.597-3.752c1.155-0.808,2.444-1.742,3.225-2.94c0.478-0.568,0.842-1.197,1.092-1.887
					c0.443-0.982,0.138-1.069-0.917-0.26c-0.72-0.413-1.439-0.826-2.159-1.238c0.923,1.604,0.16,5.274,0.201,7.055
					c0.044,1.849,0.038,3.684-0.024,5.533c-0.113,0.971-0.227,1.943-0.34,2.915c1.053-0.991,0.688-1.745-1.097-2.264
					c-0.719,1.254-1.438,2.508-2.158,3.762c3.447,0.085,4.312-2.198,3.661-5.248C99.994,90.033,95.175,91.37,95.846,94.515
					L95.846,94.515z"/>
			</g>
		</g>
		<g>
			<g>
				<path fill="#D5DE2D" d="M52.171,60.608c-2.718-0.604-5.468-0.82-8.248-0.756c-2.069,0.048-3.74-0.203-5.434,1.232
					c-2.464,2.087,1.091,5.605,3.535,3.535c-0.563,0.477-0.138,0.17,0.475,0.171c0.729,0.001,1.447,0.061,2.178,0.044
					c2.078-0.048,4.137,0.145,6.165,0.595C53.983,66.127,55.318,61.307,52.171,60.608L52.171,60.608z"/>
			</g>
		</g>
		<g>
			<g>
				<path fill="#D5DE2D" d="M79.269,53.04c-3.604-2.043-7.506-2.767-11.514-3.585c-3.147-0.643-4.487,4.176-1.33,4.821
					c3.558,0.727,7.121,1.268,10.32,3.082C79.554,58.95,82.072,54.63,79.269,53.04L79.269,53.04z"/>
			</g>
		</g>
	</g>
	<g id="amber" display="none">
		<g display="inline">
			<g>
				<path fill="#E45E28" d="M33.911,62.438c-2.041,1.437-3.766,3.684-6.278,4.248c1.025,0.582,2.05,1.164,3.075,1.746
					c-0.019-0.196,0.069-0.364,0.265-0.502c-0.784,1.259-2.543,0.312-1.042,0.914c1.004,0.403,1.926,0.923,2.889,1.414
					c2.157,1.102,4.31,1.037,6.365-0.252c1.406-0.882,1.613-2.716,0.506-3.926c-1.72-1.882-5.186-2.686-7.611-2.934
					c-1.469-0.151-2.78,0.08-3.924,1.059c-1.599,1.368-0.906,3.882-0.393,5.557c0.235,0.768,0.896,1.61,1.746,1.746
					c0.039,0.006,0.077,0.012,0.116,0.019c1.94,0.311,3.458-1.083,3.075-3.075c0.003,0.354,0.006,0.707,0.009,1.061
					c0.688-3.143-4.132-4.479-4.821-1.329c-0.127,0.581-0.122,1.015-0.009,1.598c1.025-1.025,2.05-2.05,3.075-3.075
					c-0.039-0.006-0.077-0.012-0.116-0.019c0.582,0.582,1.164,1.164,1.746,1.746c-0.088-0.291-0.178-0.581-0.268-0.871
					c-0.396-1.278-0.099,0.433-1.263,0.532c0.658-0.056,1.307,0.12,1.938,0.273c1.009,0.245,2.888,0.946,3.164,1.248
					c0.168-1.309,0.337-2.618,0.506-3.926c-1.204,0.755-2.095-0.172-3.243-0.768c-1.031-0.535-2.534-1.318-3.742-1.315
					c-2.918,0.009-4.581,3.665-3.789,6.156c0.427,1.345,1.706,2.054,3.075,1.746c3.116-0.699,4.978-2.996,7.472-4.752
					C39.049,64.916,36.555,60.578,33.911,62.438L33.911,62.438z"/>
			</g>
		</g>
		<g display="inline">
			<g>
				<path fill="#E45E28" d="M18.837,83.508c1.549-0.479,2.658-1.575,3.634-2.821c0.518-0.66,1.013-1.336,1.519-2.005
					c0.124-0.164,0.389-0.46,0.57-0.663c0.076-0.085,0.742-0.691,0.499-0.513c1.096-0.805,1.64-2.152,0.897-3.42
					c-0.635-1.083-2.319-1.705-3.42-0.897c-1.323,0.971-2.262,2.165-3.24,3.472c-0.391,0.523-0.685,0.917-1.115,1.404
					c-0.18,0.204-0.376,0.39-0.576,0.573c0.301-0.277-0.683,0.23-0.097,0.049C14.438,79.635,15.749,84.462,18.837,83.508
					L18.837,83.508z"/>
			</g>
		</g>
		<g display="inline">
			<g>
				<path fill="#E45E28" d="M23.712,87.008c4.153-1.195,5.491-6.354,8.103-9.268c2.145-2.393-1.379-5.941-3.535-3.535
					c-1.218,1.358-2.16,2.935-3.133,4.47c-0.635,1.002-1.976,3.285-2.764,3.512C19.291,83.077,20.607,87.902,23.712,87.008
					L23.712,87.008z"/>
			</g>
		</g>
		<g display="inline">
			<g>
				<path fill="#E45E28" d="M13.457,108.46c-0.655-1.5-0.031-4.069-0.119-5.696c-0.119-2.222-0.912-4.377-1.629-6.457
					c-0.908-2.631-4.858-2.241-4.911,0.665c-0.033,1.799-0.008,3.579-0.125,5.375c1.637-0.222,3.274-0.443,4.911-0.665
					c-2.542-12.763-2.203-25.347,5.121-36.611c3.657-5.625,9.983-8.889,15.365-12.607c5.829-4.027,12.61-6.428,19.55-7.664
					c12.933-2.304,28.141,3.369,37.363,12.482c10.031,9.915,12.417,22.705,12.91,36.189c0.063,1.71,0.147,6.916-2.652,6.146
					c-2.009-0.552-3.785-2.708-5.165-4.155c-3.129-3.28-5.698-6.99-8.897-10.238c-4.806-4.878-15.093-15.685-22.536-9.158
					c-1.509,1.324-2.362,2.975-3.463,4.635c-3.044,4.59-6.713,3.972-11.138,2.193c-4.355-1.752-9.144-2.795-13.254-0.082
					c-5.036,3.325-9.667,7.494-14.569,11.036c-1.977,1.429-3.936,3.002-5.429,4.943c-0.381,0.496-2.552,5.902-2.521,5.897
					c0.811,0.215,1.622,0.429,2.432,0.644c-0.32-0.314-0.156-2.982-0.157-3.378c-0.009-2.374-0.294-4.583-0.958-6.86
					c-1.623-5.559-1.497-10.267,0.159-15.834c1.417-4.767,4.063-8.952,6.97-12.925c3.696-5.052,9.511-7.834,14.819-10.905
					c5.016-2.902,10.29-5.293,15.897-6.781c6.064-1.609,11.202,0.092,17.069,1.357c2.232,0.481,4.686,0.281,6.798,1.276
					c2.318,1.092,4.284,3.053,6.604,4.252c5.785,2.991,9.717,7.861,11.737,14.102c0.989,3.054,5.818,1.747,4.822-1.329
					c-1.597-4.929-4.671-10.897-8.95-14.047c-2.41-1.773-5.096-2.994-7.699-4.447c-2.794-1.56-4.694-3.866-8.076-4.17
					c-6.668-0.599-12.681-3.235-19.458-2.561c-6.947,0.691-13.53,3.882-19.614,7.105c-5.607,2.971-11.88,6.193-16.178,10.954
					c-3.99,4.418-6.904,9.754-9.042,15.271c-2.072,5.348-2.633,11.094-1.68,16.724c0.61,3.604,1.771,6.574,1.786,10.335
					c0.006,1.547,0.041,3.848,1.234,5.02c2.314,2.275,5.381,0.452,6.297-2.301c1.215-3.652,2.509-5.617,5.662-8.024
					c2.999-2.29,6.08-4.462,9.073-6.763c3.146-2.417,6.364-5.873,10.614-4.995c2.968,0.612,5.714,1.977,8.577,2.915
					c5.383,1.765,9.482-2.174,12.491-6.098c2.799-3.65,5.167-5.466,9.238-1.923c2.126,1.851,4.691,3.048,6.672,5.063
					c3.962,4.032,7.359,8.457,11.134,12.634c5.11,5.654,13.117,8.919,15.92-0.487c0.884-2.968,0.389-6.387,0.214-9.415
					c-0.242-4.2-0.631-8.217-1.45-12.345c-1.445-7.273-5.237-13.907-9.835-19.677C85.913,45.186,69.37,38.58,54.33,39.486
					c-7.679,0.463-15.378,3.173-22.053,6.911c-6.591,3.691-13.849,8.484-18.606,14.409c-9.612,11.97-9.746,27.955-6.908,42.206
					c0.579,2.909,4.737,2.01,4.911-0.665c0.117-1.796,0.092-3.576,0.125-5.375c-1.637,0.222-3.274,0.443-4.911,0.665
					c0.882,2.557,1.617,4.939,1.491,7.689c-0.096,2.093-0.075,3.742,0.761,5.658C10.426,113.933,14.733,111.384,13.457,108.46
					L13.457,108.46z"/>
			</g>
		</g>
		<g display="inline">
			<g>
				<path fill="#E45E28" d="M14.81,100.88c3.839-2.709,3.991-7.486,8.433-9.858c5.355-2.859,10.652-5.757,16.192-8.267
					c2.814-1.274,0.618-4.938-1.926-4.569c-5.538,0.803-10.578,2.895-15.481,5.524c-2.865,1.536-7.226,3.765-7.229,7.637
					c-0.007,7.741,7.834,3.022,11.018,0.393c1.864-1.54,0.152-4.08-1.768-4.268c-1.841-0.18-3.164,0.353-4.809,1.138
					c-1.984,0.948-3.653,1.524-5.731,2.201c1.025,0.582,2.05,1.164,3.075,1.746c-1.014-3.507-0.363-7.926-0.391-11.566
					c-0.033-4.381,3.638-8.602,6.014-12.008c-1.553-0.42-3.106-0.841-4.659-1.262c0.127,6.125-2.46,13.849-4.536,19.585
					c-0.764,2.112,1.889,3.896,3.672,2.823c5.696-3.427,9.842-9.538,16.403-11.373c-0.811-1.393-1.622-2.786-2.432-4.178
					c-1.607,1.62-3.548,2.492-5.494,3.609c-2.288,1.313-1.109,4.469,1.262,4.659c5.594,0.448,11.625-0.685,15.643-4.732
					c1.809-1.822-0.029-4.743-2.432-4.178c-1.058,0.249-2.1,0.562-3.15,0.84c-0.751,0.205-1.514,0.346-2.289,0.423
					c0.188,0.848,0.377,1.697,0.565,2.545c0.464-0.292,0.946-0.552,1.445-0.779c2.475-1.236,5.422-2.041,8.133-2.582
					c-0.443-1.607-0.886-3.214-1.329-4.821c-3.973,1.617-8.125,1.519-12.335,1.286c0.804,1.055,1.607,2.11,2.411,3.165
					c0.446-1.461,3.599-2.109,4.964-2.165c-0.42-1.553-0.841-3.106-1.262-4.659c-1.414,1.007-2.807,1.777-4.528,2.123
					c0.811,1.393,1.622,2.786,2.432,4.178c0.976-0.992,2.149-1.611,3.522-1.857c-1.025-1.025-2.05-2.05-3.075-3.075
					c-0.882,2.603-7.073,3.977-9.464,4.29c0.804,1.055,1.607,2.11,2.411,3.165c0.459-1.726,2.217-2.516,3.601-3.256
					c-0.841-1.439-1.682-2.878-2.523-4.317c-2.22,1.203-4.311,2.029-6.863,2.034c0.833,0.833,1.667,1.667,2.5,2.5
					c-0.182-2.431,2.299-4.097,4.137-5.091c-1.01-1.309-2.02-2.618-3.029-3.926c-1.617,1.824-3.427,2.981-5.619,3.984
					c1.14,1.14,2.28,2.28,3.42,3.42c2.049-2.951,5.047-4.839,8.103-6.603c-1.01-1.309-2.02-2.618-3.029-3.926
					c-0.624,0.588-1.335,1.011-2.064,1.457c-0.305,0.165-0.609,0.331-0.914,0.496c-1.608,0.219-1.642,0.759-0.103,1.619
					c1.156-1.396,3.301-2.664,5.013-3.269c-0.941-1.224-1.882-2.448-2.823-3.672c-0.488,1.122-1.191,2.078-2.109,2.869
					c1.178,1.178,2.357,2.357,3.535,3.535c2.725-3.109,8.33-5.5,12.504-5.892c-0.41-0.525-0.82-1.051-1.23-1.576
					c-0.549,0.546-1.154,1.021-1.813,1.425c-0.551,0.375-1.142,0.697-1.739,0.992c-3.219,1.592-6.818,3.748-10.574,3.123
					c0.498,1.224,0.996,2.448,1.494,3.672c0.617-0.872,1.957-1.48,2.853-2.009c1.645-0.368,1.535-1.08-0.331-2.136
					c-0.541,0.543-1.139,1.016-1.793,1.418c-2.318,1.606-5.162,3.065-7.927,3.679c1.055,0.804,2.11,1.607,3.165,2.411
					c0.015-1.097,0.375-2.378-0.216-3.387c-1.603-2.736-2.9,0.163-0.823,0.797c2.182,0.667,3.873,1.632,5.778,2.748
					c0.451,0.233,0.93,0.378,1.437,0.437c3.126,0.688-0.548-0.766-0.208-1.232c1.439,0.841,2.878,1.682,4.317,2.523
					c2.466-4.296,7.467-5.823,11.953-7.13c2.575-0.75,5.192-1.34,7.813-1.905c2.89-0.623,7.499-2.131,10.411-1.316
					c-0.498-1.224-0.996-2.448-1.493-3.672c-1.618,2.453-6.88,2.435-9.467,2.762c-4.846,0.612-9.836,2.293-14.71,1.089
					c0.582,1.025,1.164,2.05,1.746,3.075c0.569-1.822,6.224-2.511,7.879-3.004c3.059-0.911,6.83-2.697,10.045-1.875
					c-0.367-1.393-0.735-2.786-1.103-4.178c-2.331,2.41-9.834,2.004-13.013,1.977c-4.019-0.035-1.166-1.231,0.862-2.029
					c1.566-0.616,3.352-1.148,5.044-1.18c-0.42-1.553-0.841-3.106-1.262-4.659c-1.9,1.043-4.685,1.315-6.794,1.492
					c-1.309-0.245-1.396,0.385-0.262,1.89c0.645-0.337,1.321-0.587,2.029-0.75c1.284-0.376,3.032-0.751,4.374-0.438
					c-0.582-1.025-1.164-2.05-1.746-3.075c-0.465,1.152-2.362,1.905-3.351,2.506c-2.402,1.46-0.841,5.367,1.926,4.569
					c4.77-1.374,9.966-4.236,15.045-3.25c-0.198-1.523-0.397-3.046-0.597-4.569c-3.73,1.614-9.058,2.129-12.949,0.873
					c0.199,1.523,0.398,3.046,0.597,4.569c2.261-1.27,6.146-3.069,8.699-1.998c-0.498-1.224-0.996-2.448-1.494-3.672
					c-2.318,3.525-7.277,5.255-11.341,5.137c0.222,1.637,0.443,3.274,0.665,4.911c2.53-1.066,5.52-2.043,8.296-1.625
					c-0.368-1.393-0.735-2.786-1.103-4.178c-1.981,2.224-11.006,3.127-13.443,2.107c0.368,1.393,0.735,2.786,1.103,4.178
					c3.682-2.968,8.907-3.395,13.397-4.232c4.883-0.911,13.589-4.217,17.052,0.851c0.497-1.224,0.995-2.448,1.493-3.672
					c-3.653,1.296-7.475,0.035-11.146-0.604c-1.829-0.319-6.772-0.447-7.906-2.122c-0.498,1.224-0.996,2.448-1.494,3.672
					c2.576-0.649,5.652-0.882,8.25-0.286c-0.454-1.019-1.032-1.181-1.735-0.486c-0.71,0.308-1.438,0.566-2.182,0.777
					c-1.239,0.389-2.571,0.7-3.874,0.708c0.42,1.553,0.841,3.106,1.262,4.659c2.831-1.639,6.092-1.586,9.236-2.095
					c2.009,0.323,2.317-0.604,0.925-2.783c-0.581,0.33-1.194,0.579-1.841,0.747c-0.947,0.311-2.208,0.706-3.167,0.312
					c0.498,1.224,0.996,2.448,1.494,3.672c0.534-1.126,5.301-2.92,6.122-1.343c0-0.841,0-1.683,0-2.524
					c-0.146,0.198-0.293,0.396-0.438,0.593c1.522,0.199,3.046,0.398,4.569,0.597c-0.4-1.125,5.33-0.878,4.821-0.228
					c1.179,0,2.356,0,3.535,0c-0.181,0.896,0.2,1.327,1.143,1.292c0.782,0.148,1.384,0.528,1.804,1.141
					c0.582-1.025,1.164-2.05,1.746-3.075c-1.166,0.249-3.359,0.094-4.052-1.101c-0.719,1.254-1.438,2.508-2.158,3.762
					c4.766,0.485,8.868,4.538,12.29,7.54c4.29,3.764,5.481,7.739,7.549,12.875c1.722,4.275,2.271,8.926,2.681,13.488
					c0.142,1.569,0.239,3.141,0.316,4.714c0.044,0.893-0.305,3.691,0.271,3.115c1.01-0.13,2.02-0.261,3.029-0.391
					c-4.64-3.314-8.582-7.832-12.658-11.837c-5.066-4.978,5.098-9.601,6.489-5.351c0.541,1.65,0.299,3.739,0.338,5.449
					c0.048,1.257-0.042,2.506-0.271,3.747c-0.674,1.312-0.687,1.59-0.038,0.835c0.842,0,1.683,0,2.524,0
					c-3.386-1.988-7.29-6.856-9.113-10.446c-0.497,1.224-0.995,2.448-1.493,3.672c0.645-0.268,4.087-1.376,4.424-0.496
					c0.911,2.374,3.91,2.37,4.822,0c0.725-1.886,0.783-3.791,0.125-5.704c-0.736-2.137-3.299-2.384-4.569-0.597
					c-2.452,3.447-2.073,11.058-1.003,14.926c0.632,2.28,3.321,2.23,4.569,0.597c4.291-5.611,3.997-11.079-3.431-12.344
					c-3.901-0.665-7.811-0.301-11.024-3.019c-2.938-2.485-6.579-5.035-10.429-5.575c-5.233-0.735-10.675,0.839-15.858,1.456
					c-4.98,0.593-8.891,4.056-13.666,4.595c-2.001-1.78-2.679-2.141-2.034-1.084c1.668-0.098,3.34-0.177,5.011-0.247
					c3.253-0.136,6.52-0.057,9.774-0.029c5.279,0.045,10.467,0.283,15.385-1.856c2.51-1.092,0.93-4.474-1.262-4.659
					c-4.987-0.42-9.905,0.327-14.874,0.682c-6.076,0.434-12.291,0.525-18.376,0.318c0.42,1.553,0.841,3.106,1.262,4.659
					c3.716-1.583,10.358-2.698,14.449-1.998c-0.498-1.224-0.996-2.448-1.494-3.672c-0.946,2.052-3.857,2.467-5.756,3.226
					c1.055,0.804,2.11,1.607,3.165,2.411c-0.174-2.883,1.886-5.561,2.536-8.335c0.301-1.287-0.382-2.754-1.746-3.075
					c-4.31-1.014-8.288,0.797-12.329,2.125c-2.639,0.867-2.234,4.908,0.665,4.911c5.389,0.004,10.521-1.665,15.875-2
					c-0.804-1.055-1.607-2.11-2.411-3.165c-0.042,0.208-0.083,0.417-0.125,0.625c-0.331,1.656,0.713,3.06,2.411,3.165
					c6.132,0.379,12.055-3.879,18.085-2.339c-0.198-1.523-0.397-3.046-0.597-4.569c-4.455,2.512-9.646,2.478-14.613,2.159
					c0.589,1.422,1.179,2.845,1.768,4.268c1.346-1.503,5.772-0.565,7.607-0.518c4.287,0.111,8.752-0.589,12.738,1.409
					c-0.299-1.14-0.598-2.28-0.896-3.42c-0.804,1.421-6.295,0.491-7.717,0.387c-4.618-0.338-9.036-1.015-13.335-2.786
					c0,1.607,0,3.214,0,4.821c1.73-0.487,9.112-1.557,10.177,0.351c0.497-1.224,0.995-2.448,1.493-3.672
					c-3.755,1.384-11.631,1.298-15.42-0.125c0,1.607,0,3.214,0,4.821c0.663-1.256,1.094-1.389,1.292-0.399
					c0.156,0.374,0.373,0.709,0.65,1.006c1.188,0.97,2.25,1.55,3.722,1.997c4.688,1.423,10.198,1.371,15.045,1.671
					c2.783,0.173,5.568,0.212,8.348,0.455c1.576,0.138,3.12,0.399,4.637,0.844c0.958-1.833,0.581-2.801-1.132-2.902
					c-0.552-0.24-1.841-0.941-2.066-1.498c-1.025,1.025-2.051,2.05-3.076,3.075c1.66,0.641,2.662,2.418,3.507,3.851
					c0.719-1.254,1.438-2.508,2.158-3.762c-1.083-0.083-2.167-0.167-3.25-0.25c-3.235-0.249-3.165,4.694,0,5
					c5.637,0.544,13.59,0.718,15.286-6.085c0.304-1.221-0.38-2.84-1.746-3.075c-3.136-0.54-5.646,0.142-8.79,0.411
					c0.72,1.254,1.439,2.508,2.158,3.762c0.453-0.498,0.906-0.996,1.359-1.494c2.465-2.085-1.09-5.604-3.535-3.535
					c-1.054,0.891-1.393,1.344-2.141,2.506c-0.975,1.514,0.279,3.922,2.158,3.762c2.41-0.206,5.069-1.001,7.46-0.589
					c-0.582-1.025-1.164-2.05-1.746-3.075c-0.953,3.825-7.519,2.699-10.464,2.415c0,1.667,0,3.333,0,5
					c1.083,0.083,2.167,0.167,3.25,0.25c1.929,0.148,3.065-2.222,2.158-3.762c-1.611-2.736-3.486-4.988-6.493-6.149
					c-1.685-0.65-3.767,1.371-3.076,3.075c1.385,3.414,6.763,7.116,10.527,5.25c4.492-2.228,1.505-6.215-1.919-7.218
					c-4.849-1.421-10.462-1.067-15.447-1.376c-3.227-0.2-11.637,0.383-13.374-2.581c-1.41-2.407-4.532-1.961-6.791-1.399
					c-2.581,0.642-2.177,4.004,0,4.821c2.595,0.974,5.312,0.77,8.04,0.839c3.401,0.087,6.784,0.485,10.04-0.714
					c1.52-0.56,2.33-2.173,1.493-3.672c-2.561-4.591-11.583-3.843-15.823-2.649c-2.586,0.728-2.161,3.931,0,4.821
					c5.395,2.222,11.122,2.77,16.893,3.115c3.315,0.198,7.941,0.286,9.805-3.014c0.638-1.127,0.335-2.803-0.896-3.42
					c-5.068-2.541-10.386-1.965-15.877-2.107c-3.379-0.087-7.998-0.827-10.527,1.999c-1.495,1.67-0.443,4.125,1.768,4.268
					c5.888,0.378,11.894,0.115,17.137-2.841c1.872-1.055,1.493-4.036-0.597-4.569c-6.829-1.744-12.697,2.576-19.415,2.161
					c0.804,1.055,1.607,2.11,2.411,3.165c0.042-0.208,0.083-0.417,0.125-0.625c0.299-1.497-0.688-3.272-2.411-3.165
					c-5.348,0.334-10.505,2.004-15.875,2c0.222,1.637,0.443,3.274,0.665,4.911c2.966-0.975,6.495-2.872,9.671-2.125
					c-0.582-1.025-1.164-2.05-1.746-3.075c-0.782,3.342-2.929,6.126-2.714,9.665c0.088,1.463,1.561,3.052,3.165,2.411
					c3.219-1.287,7.161-2.089,8.744-5.524c0.612-1.327,0.231-3.377-1.494-3.672c-5.607-0.96-13.095,0.284-18.301,2.502
					c-2.441,1.041-1,4.582,1.262,4.659c5.588,0.189,11.165-0.1,16.75-0.25c5.529-0.149,10.956-1.217,16.5-0.75
					c-0.421-1.553-0.841-3.106-1.262-4.659c-5.492,2.388-12.913,1.148-18.742,1.141c-3.148-0.004-10.461-1.075-13.061,1.523
					c-2.05,2.05-0.958,5.261,0.355,7.391c1.886,3.06,6.283,2.665,9.215,1.885c1.851-0.493,3.596-1.663,5.268-2.548
					c3.054-1.616,6.784-1.654,10.138-2.003c2.842-0.297,5.581-1.142,8.45-1.055c3.896,0.118,5.953,2.393,9.108,4.235
					c3.453,2.016,5.613,3.413,9.769,3.937c1.883,0.237,3.75,0.383,5.606,0.801c1.827,0.412-0.551,3.182-1.628,4.591
					c1.522,0.199,3.046,0.398,4.569,0.597c-0.67-2.421-1.064-8.878,0.497-11.074c-1.522-0.199-3.046-0.398-4.569-0.597
					c0.464,1.035,0.422,2.05-0.125,3.046c1.607,0,3.215,0,4.822,0c-1.632-4.254-6.774-4.575-10.576-2.996
					c-1.535,0.638-2.291,2.102-1.493,3.672c1.233,2.43,11.181,17.206,14.725,11.158c2.673-4.564,3.156-17.119-2.913-19.562
					c-5.799-2.333-16.435,3.624-14.266,10.564c1.079,3.451,4.763,5.804,7.095,8.345c2.938,3.201,6.349,6.368,9.881,8.891
					c0.903,0.646,2.289,0.35,3.029-0.391c2.21-2.209,1.205-6.91,1.015-9.652c-0.386-5.555-1.002-11.312-2.996-16.53
					c-2.323-6.076-3.855-10.675-8.836-15.082c-4.58-4.052-9.52-8.362-15.825-9.004c-1.949-0.198-3.033,2.251-2.158,3.762
					c1.89,3.266,6.221,4.141,9.698,3.399c1.356-0.29,2.059-1.813,1.746-3.075c-0.886-3.567-5.277-4.974-8.536-5.335
					c-5.122-0.567-5.276,4.978-2.768,7.768c0.832,0.926,2.724,1.036,3.535,0c8.146-10.386-16.938-12.55-13.179-1.978
					c0.766,2.152,3.264,2.361,4.569,0.597c0.146-0.198,0.293-0.395,0.439-0.593c0.534-0.722,0.384-1.788,0-2.524
					c-2.615-5.021-12.607-3.189-14.756,1.343c-0.751,1.584-0.077,3.027,1.494,3.672c2.98,1.225,12.289-0.925,11.012-5.566
					c-1.533-5.573-14.298-1.526-17.359,0.247c-2.149,1.244-1.228,4.675,1.262,4.659c3.994-0.026,12.835-1.977,12.375-7.375
					c-0.479-5.616-10.695-4.036-14.165-3.161c-1.495,0.377-2.396,2.341-1.494,3.672c2.161,3.191,6.602,3.695,10.12,4.292
					c4.778,0.81,9.822,2.42,14.579,0.732c1.421-0.504,2.464-2.252,1.493-3.672c-2.886-4.225-9.779-7.479-13.779-2.793
					c-3.667,4.297,4.343,7.41,7.348,4.142c5.135-5.585-5.128-6.539-8.457-6.026c-7.668,1.18-17.194,2.034-23.412,7.046
					c-1.645,1.325-0.416,3.542,1.103,4.178c2.854,1.195,6.152,0.455,9.08-0.107c3.16-0.607,6.97-0.751,9.227-3.286
					c1.112-1.248,0.897-3.877-1.103-4.178c-3.75-0.565-7.471,0.157-10.954,1.625c-2.49,1.049-2.348,4.823,0.665,4.911
					c5.899,0.171,12.37-2.611,15.658-7.613c0.979-1.489-0.097-3.087-1.494-3.672c-3.84-1.61-9.172,0.604-12.551,2.502
					c-1.963,1.102-1.399,3.924,0.597,4.569c5.236,1.691,11.828,0.775,16.801-1.377c1.973-0.854,1.418-4.178-0.597-4.569
					c-6.246-1.212-11.824,1.556-17.705,3.25c0.642,1.523,1.284,3.046,1.926,4.569c2.54-1.544,4.516-2.688,5.649-5.494
					c0.497-1.231-0.53-2.792-1.746-3.075c-3.727-0.87-14.325,0.667-12.7,6.575c1.365,4.963,11.625,1.974,14.547,0.369
					c2.18-1.197,1.205-4.706-1.262-4.659c-4.033,0.077-18.186,4.536-12.518,10.893c2.621,2.939,7.461,2.424,10.99,2.148
					c4.158-0.326,9.07-0.066,12.17-3.273c1.283-1.327,0.753-3.704-1.103-4.178c-4.758-1.217-9.512,1.038-14.051,2.253
					c-3.672,0.983-8.736,1.997-10.024,6.118c-0.399,1.275,0.457,2.757,1.746,3.075c5.901,1.458,11.73-0.401,17.599-1.102
					c4.376-0.522,9.594-1.059,12.224-5.047c0.9-1.365-0.002-3.255-1.493-3.672c-3.033-0.848-6.232,0.095-9.284,0.597
					c-4.31,0.709-8.57,1.742-12.761,2.963c-5.41,1.577-10.869,4.021-13.778,9.089c-1.639,2.854,2.461,5.08,4.317,2.523
					c1.337-1.841,2.152-4.79-0.69-5.768c-2.716-0.935-5.182-2.221-8.028-3.096c-2.298-0.707-5.629-1.962-7.219,0.752
					c-1.436,2.451,0.67,5.011,0.654,6.225c-0.023,1.69,1.606,2.756,3.165,2.411c4.359-0.967,13.942-4.877,13.71-10.411
					c-0.288-6.867-10.392-0.383-12.159,2.113c-0.877,1.239-0.03,3.419,1.494,3.672c5.621,0.935,20.309-3.071,20.639-10.504
					c0.38-8.547-18.016,1.82-19.992,4.076c-2.106,2.402,1.271,5.873,3.535,3.535c1.19-1.229,2.142-2.353,2.891-3.881
					c0.883-1.8-0.582-4.464-2.823-3.672c-3.467,1.224-10.099,4.813-8.833,9.417c1.552,5.643,9.394,0.877,11.765-1.363
					c2.093-1.977-0.591-5.333-3.029-3.926c-3.856,2.225-7.334,4.706-9.897,8.397c-1.576,2.27,1.374,4.357,3.42,3.42
					c2.595-1.188,4.736-2.627,6.631-4.766c1.875-2.116-0.473-5.309-3.029-3.926c-3.422,1.851-6.926,5.23-6.613,9.409
					c0.102,1.356,1.061,2.502,2.5,2.5c3.406-0.006,6.42-1.108,9.387-2.716c2.837-1.538,0.317-5.835-2.523-4.317
					c-2.71,1.448-5.08,3.167-5.899,6.244c-0.375,1.412,0.753,3.381,2.411,3.165c4.935-0.645,12.494-2.67,14.286-7.96
					c0.618-1.824-1.318-3.579-3.075-3.075c-2.23,0.639-4.011,1.581-5.728,3.143c-1.98,1.801,0.137,4.64,2.432,4.178
					c2.113-0.425,3.974-1.381,5.722-2.627c1.881-1.34,1.422-4.768-1.262-4.659c-3.77,0.153-8.59,1.919-9.786,5.835
					c-0.497,1.627,0.838,3.078,2.411,3.165c4.62,0.255,9.315,0.305,13.665-1.464c2.945-1.198,1.893-5.464-1.329-4.821
					c-3.715,0.741-10.872,2.159-12.764,5.913c-3.329,6.603,8.49,3.808,10.718,3.284c-0.811-1.393-1.622-2.786-2.432-4.178
					c-3.012,3.034-7.971,3.599-12.107,3.268c0.42,1.553,0.841,3.106,1.262,4.659c2.332-1.337,4.598-2.468,6.506-4.391
					c1.757-1.771-0.007-4.856-2.432-4.178c-7.2,2.014-11.413,8.156-17.597,11.877c1.224,0.941,2.448,1.882,3.672,2.823
					c2.257-6.236,4.854-14.225,4.714-20.915c-0.054-2.606-3.269-3.254-4.659-1.262c-2.63,3.771-6.258,8.212-6.591,13.012
					c-0.31,4.458-0.788,10.086,0.464,14.415c0.365,1.262,1.767,2.172,3.075,1.746c1.152-0.375,2.375-0.399,3.472-0.877
					c1.78-0.774,3.673-2.486,5.738-2.284c-0.589-1.422-1.179-2.845-1.768-4.268c-0.906,0.748-1.834,1.428-2.823,2.063
					c-3.236,2.077,4.425-1.857,5.094-2.24c4.448-2.545,9.22-4.285,14.287-5.02c-0.642-1.523-1.284-3.046-1.926-4.569
					c-5.552,2.515-10.722,5.621-16.192,8.267c-1.829,0.885-3.814,2.181-4.964,3.897c-1.118,1.671-1.841,4.812-3.469,5.961
					C9.674,98.407,12.168,102.745,14.81,100.88L14.81,100.88z"/>
			</g>
		</g>
		<g display="inline">
			<g>
				<path fill="#E45E28" d="M67.838,60.508c4.919-1.603,8.259,2.927,11.692,5.732c3.142,2.567,7.433,3.597,11.353,4.143
					c1.759,0.245,3.705-1.059,3.076-3.075c-0.907-2.903-3.266-4.539-5.614-6.293c-3.836-2.865-7.559-5.001-11.893-7.047
					c-2.164-1.022-6.379-3.167-8.725-1.419c-0.949,0.708-2.074,1.538-2.287,2.819c-0.291,1.759,0.336,2.282-1.154,2.946
					c-2.266,1.009-1.145,4.841,1.262,4.659c4.556-0.345,7.68,0.919,11.107,3.893c2.596,2.252,5.341,3.499,8.131,5.391
					c2.404,1.63,4.979-1.948,3.029-3.926c-3.636-3.69-7.874-6.61-11.875-9.875c-2.816-2.299-8.658-2.602-10.734-5.369
					c-1.909-2.546-6.254-0.059-4.316,2.523c2.146,2.861,5.437,3.782,8.716,4.958c5.227,1.874,10.84,7.406,14.675,11.298
					c1.01-1.309,2.02-2.618,3.029-3.926c-1.391-0.943-2.937-1.522-4.408-2.328c-2.068-1.133-3.601-3.278-5.563-4.605
					c-3.683-2.488-7.366-3.368-11.79-3.033c0.421,1.553,0.841,3.106,1.262,4.659c1.51-0.672,2.954-1.508,3.426-3.221
					c0.173-0.629,0.123-1.299,0.044-1.933c-0.113-0.908,3.71,0.836,3.649,0.808c2.616,1.204,5.189,2.365,7.66,3.857
					c2.017,1.218,6.819,4.16,7.548,6.495c1.025-1.025,2.051-2.05,3.076-3.075c-2.969-0.414-5.702-1.087-8.396-2.444
					c-2.261-1.139-4.008-3.377-6.007-4.901c-3.471-2.646-7.024-3.924-11.302-2.53C63.457,56.681,64.763,61.51,67.838,60.508
					L67.838,60.508z"/>
			</g>
		</g>
	</g>
	<g id="red" display="none">
		<g display="inline">
			<g>
				<path fill="#761618" d="M22.848,89.419c-2.423,3.613-3.845,7.43-7.461,10.109c-2.654,1.966-3.276,4.955-5.647,6.885
					c1.309,0.169,2.618,0.337,3.926,0.506c-2.788-5.505-2.409-14.072-2.614-20.167c-0.229-6.806,1.339-12.591,4.566-18.58
					c2.98-5.531,7.438-9.517,11.965-13.735c5.709-5.317,12.266-6.916,19.677-8.5c7.806-1.667,15.026-1.85,22.77,0.292
					c6.719,1.858,14.302,5.068,18.276,10.97c3.731,5.541,7.703,10.822,10.965,16.678c3.268,5.865,3.288,13.542,2.995,20.086
					c-0.069,1.533-0.354,3.029-0.995,4.43c-1.348,2.944-4.327-0.106-5.275-1.007c-1.736-1.65-3.149-3.687-4.743-5.473
					c-4.298-4.818-8.476-9.335-13.325-13.617c-3.259-2.878-7.682-5.195-12.042-3.515c-1.59,0.613-2.564,2.037-3.425,3.434
					c-2.073,3.368-5.401,5.575-9.373,6.033c-2.609,0.301-7.329-2.664-9.996-3.32c-2.396-0.59-4.756-0.512-7.164-0.109
					c-4.716,0.788-10.344,6.37-13.239,9.947c-2.011,2.484-3.725,4.366-6.263,6.334c-1.208,0.937-2.294,1.877-3.354,2.979
					c-1.768,1.838,2.519-2.601,2.549-2.622c3.604-2.577,8.432-4.756,10.711-8.682c1.432-2.466-1.907-5.042-3.926-3.029
					c-3.473,3.46-5.665,9.042-10.73,10.357c1.025,0.582,2.05,1.164,3.075,1.746c-1.575-4.69-1.21-9.55-0.662-14.391
					c0.217-1.917,0.773-10.727,3.411-11.021c1.839-0.205,3.788,1.6,4.962,2.752c2.165,2.125,1.863,4.03-0.171,6.127
					c-2.909,2.999-6.67,4.366-9.11,7.936c1.309-0.169,2.618-0.337,3.926-0.506c-1.371-1.156-0.336-7.043-0.116-8.571
					c0.255-1.768,0.695-3.553,1.575-5.115c0.524-0.931-0.091,0.596,0.125,1.376c0.616,2.223-1.207,4.225-2.453,5.81
					c1.393,0.368,2.786,0.735,4.178,1.103c-0.411-1.358-0.389-2.76-0.359-4.167c0.043-0.43,0.085-0.86,0.128-1.291
					c0.516-0.867,0.25-1.216-0.799-1.047c0.275,0.8,0.22,1.825,0.286,2.668c0.135,1.722,2.08,3.334,3.762,2.159
					c2.872-2.006,4.749-7.789,1.318-10.176c-0.71-0.494-1.807-0.433-2.523,0c-6.817,4.118,5.703,12.92,8.521,3.682
					c0.299-0.981-0.161-2.381-1.149-2.823c-3.063-1.372-5.35-4.189-8.764-4.752c-1.839-0.303-3.596,1.088-3.075,3.075
					c0.706,2.695,1.87,4.996,2.333,7.833c0.379,2.319,3.49,2.201,4.569,0.597c1.269-1.886,1.996-4.696,4.841-4.928
					c1.841-0.15,3.705-1.45,5.234-2.37c4.623-2.779,9.483-5.614,14.747-6.921c5.132-1.274,10.94-1.362,16.189-1.007
					c2.873,0.194,6.094,0.662,8.297,2.645c1.98,1.782,3.432,4.366,5.204,6.368c3.535,3.991,6.232,7.111,8.068,12.226
					c1.343,3.74,2.036,8.48,4.852,11.488c3.09,3.301,10.707,6.961,10.909-0.428c0.088-3.226-4.912-3.218-5,0
					c0.92-0.575,0.865-0.976-0.164-1.202c-1.061-0.6-1.919-1.419-2.573-2.456c-1.45-2.033-1.977-5.049-2.749-7.395
					c-1.238-3.762-2.734-7.33-5.023-10.58c-2.636-3.742-6.236-6.825-9.056-10.469c-2.67-3.451-6.329-4.238-10.422-4.917
					c-8.971-1.488-19.471-0.187-27.618,3.835c-4.042,1.996-8.356,5.642-12.83,6.376c-4.09,0.671-5.135,4.107-7.223,7.211
					c1.523,0.199,3.046,0.398,4.569,0.597c-0.469-2.869-1.624-5.123-2.333-7.833c-1.025,1.025-2.05,2.05-3.075,3.075
					c2.861,0.472,4.956,3.078,7.569,4.248c-0.383-0.941-0.766-1.882-1.149-2.823c0.217-0.713-2.486,2.756-1.176,1.964
					c-0.841,0-1.682,0-2.523,0c-2.067-1.439,0.406,0.337-1.318,1.542c1.254,0.72,2.508,1.439,3.762,2.159
					c-0.269-3.431-1.741-10.103-6.825-7.124c-3.596,2.106-3.275,8.907-2.252,12.289c0.491,1.624,2.954,2.66,4.178,1.103
					c3.032-3.855,5.637-8.501,2.807-13.306c-1.811-3.075-5.031-3.645-7.554-0.986c-3.438,3.622-5.825,17.107-1.455,20.792
					c1.286,1.085,2.966,0.899,3.926-0.506c3.364-4.922,12.348-6.853,11.575-14.209c-0.514-4.885-5.531-8.993-10.075-9.984
					C6.7,64.901,7.925,93.212,9.929,99.178c0.438,1.306,1.701,2.103,3.075,1.746c6.313-1.638,8.652-7.374,12.937-11.643
					c-1.309-1.01-2.618-2.02-3.926-3.029c-1.449,2.496-4.373,3.367-6.532,5.097c-1.97,1.58-4.102,2.896-5.913,4.666
					c-2.385,2.331-3.274,7.559,0.04,9.5c3.59,2.103,6.852-1.958,9.177-3.968c2.348-2.03,4.595-3.589,6.537-6.072
					c2.347-3.002,5.001-4.919,7.883-7.328c7.076-5.915,12.467,0.746,19.881,1.102c5.167,0.248,10.145-3.647,13.077-7.473
					c0.916-1.195,0.908-2.414,2.676-2.595c1.995-0.204,4.136,1.504,5.552,2.652c2.273,1.842,4.473,3.92,6.597,5.929
					c4.521,4.277,7.845,9.713,12.354,14c2.804,2.664,6.579,3.779,10.004,1.688c3.723-2.272,3.924-7.942,3.99-11.757
					c0.107-6.143-0.431-12.665-2.821-18.374c-2.589-6.181-6.984-11.857-10.9-17.241c-3.623-4.979-6.512-8.045-12.229-10.64
					c-6.245-2.835-12.319-4.996-19.176-5.761c-6.642-0.741-13.114,0.753-19.555,2.143c-6.637,1.432-12.184,3.59-17.386,7.986
					c-8.442,7.134-15.071,15.284-18.204,26.038c-1.532,5.261-1.11,10.876-0.743,16.265c0.391,5.744,0.383,12.116,3.025,17.333
					c0.789,1.558,2.756,1.458,3.926,0.506c1.317-1.07,1.907-2.078,2.594-3.646c0.965-2.201,3.405-3.413,5.15-4.946
					c2.78-2.441,4.126-6.399,6.147-9.413C28.966,89.256,24.633,86.756,22.848,89.419L22.848,89.419z"/>
			</g>
		</g>
		<g display="inline">
			<g>
				<path fill="#761618" d="M101.831,95.442c4.482-7.331,0.746-17.48-2.666-24.406C94.236,61.03,87.506,51.97,77.419,46.976
					c-9.194-4.553-22.021-5.311-31.927-3.313c-4.707,0.95-10.918,2.42-14.614,5.69c-1.788,1.581-3.34,3.138-5.533,4.171
					c-1.747,0.823-3.097,1.562-4.304,3.107c-1.195,1.531-1.736,3.324-3.143,4.72c-1.402,1.391-3.531,2.426-4.095,4.477
					c-1.023,3.719,3.825,4.267,6.205,4.596c3.768,0.521,8.303,3.362,12.093,1.248c1.484-0.828,2.386-1.71,3.271-3.158
					c1.93-3.154,4.241-3.816,7.78-4.471c9.602-1.778,21.33-5.341,30.4-0.155c5.412,3.095,8.549,10.265,11.837,15.31
					c1.747,2.683,3.704,5.207,5.304,7.984c1.563,2.715,1.917,5.941,3.321,8.759c0.919,1.847,4.219,1.527,4.569-0.597
					c0.844-5.126,1.72-9.957,0.598-15.112c-1.078-4.957-4.062-10.227-6.233-14.82c-4.187-8.858-10.646-14.265-20.09-16.789
					c-4.141-1.106-8.521-1.446-12.785-1.659c-5.688-0.284-11.753-1.052-17.4-0.618c-4.62,0.355-9.251,3.702-13.348,5.629
					c-2.058,0.968-3.82,2.21-5.476,3.748c-1.886,1.752-2.334,5.756-4.84,6.713c-2.54,0.969-2.309,4.897,0.665,4.911
					c4.174,0.019,8.371-0.816,12.502,0.077c3.144,0.68,4.48-4.14,1.329-4.821c-4.622-1-9.16-0.234-13.831-0.256
					c0.222,1.637,0.443,3.274,0.665,4.911c2.729-1.042,4.136-2.496,5.357-5.146c2.048-4.446,6.305-5.898,10.466-7.831
					c2.801-1.301,5.086-2.824,8.287-3.071c2.385-0.184,4.914,0.344,7.284,0.565c4.108,0.383,8.283,0.119,12.407,0.457
					c8.761,0.718,17.195,3.571,22.099,11.275c2.609,4.1,4.366,8.75,6.212,13.221c2.556,6.192,2.386,10.772,1.313,17.288
					c1.523-0.199,3.047-0.398,4.569-0.597c-2.15-4.32-2.929-8.521-5.765-12.593c-2.963-4.253-5.712-8.64-8.579-12.957
					c-4.608-6.94-10.433-10.764-18.776-11.527c-7.737-0.707-15.816,1.608-23.388,2.879c-3.079,0.517-7.258,1.213-9.207,3.984
					c-1.757,2.497-2.431,4.602-6.196,3.772c-2.197-0.484-4.24-1.258-6.482-1.568c-1.606-0.543-1.717-0.197-0.332,1.039
					c0.619-0.51,1.228-1.03,1.828-1.562c1.296-1.13,2.154-2.587,2.897-4.111c1.416-2.906,5.758-3.964,8.157-6.132
					c8.464-7.648,21.519-7.379,32.091-5.992c5.291,0.694,9.688,2.133,14.336,4.773c5.438,3.089,8.564,8.356,11.885,13.453
					c4.164,6.391,11.52,18.181,6.714,26.042C95.827,95.678,100.153,98.188,101.831,95.442L101.831,95.442z"/>
			</g>
		</g>
		<g display="inline">
			<g>
				<path fill="#761618" d="M23.173,63.681c-0.204,4.359,2.536,6.729,6.667,7.167c-0.72-1.254-1.439-2.508-2.159-3.762
					c-1.276,1.875-3.302,3.141-4.903,4.717c-1.492,1.47-2.1,3.641-3.706,4.943c1.393,0.368,2.786,0.735,4.178,1.103
					c-0.035-0.111-0.069-0.222-0.104-0.333c-0.214,0.811-0.429,1.622-0.643,2.432c0.09-0.111,0.181-0.222,0.271-0.333
					c2.015-2.479-1.501-6.039-3.535-3.535c-0.804,0.989-1.211,1.814-0.81,3.099c0.6,1.921,2.721,2.285,4.178,1.103
					c1.868-1.514,2.595-3.848,4.301-5.529c1.763-1.737,3.676-3.065,5.09-5.143c1.172-1.723-0.44-3.58-2.159-3.762
					c-1.496-0.159-1.733-0.745-1.667-2.167C28.323,60.456,23.323,60.471,23.173,63.681L23.173,63.681z"/>
			</g>
		</g>
		<g display="inline">
			<g>
				<path fill="#761618" d="M28.165,62.942c6.734-11.647,28.441-10.364,39.445-7.858c7.351,1.675,13.264,4.817,17.312,11.315
					c2.063,3.312,3.399,6.959,4.916,10.531c1.103,2.599,1.491,6.232,3.01,8.512c1.813,2.724,5.628,0.385,4.316-2.523
					c-3.248-7.208-7.284-13.96-11.075-20.885c-3.073-5.614-6.332-7.536-12.762-7.16c-7.42,0.433-14.94-1.644-22.42-1.631
					c-3.894,0.007-7.722,0.649-11.544,1.314c-3.5,0.609-7.225,0.822-10.47,2.408c-2.835,1.385-6.649,4.674-4.403,8.157
					c2.926,4.537,10.169-2.333,13.015-3.455c8.602-3.39,18.129-0.762,26.979,0.115c3.779,0.374,7.711,0.364,11.442,1.06
					c3.408,0.636,3.133,4.022,4.423,6.601c1.309-1.01,2.617-2.02,3.926-3.029c-4.884-3.805-9.351-8.108-14.839-11.058
					c-2.84-1.526-5.364,2.791-2.523,4.317c5.115,2.749,9.275,6.731,13.827,10.276c2.2,1.714,5.261-0.361,3.926-3.029
					c-1.784-3.568-1.503-6.372-5.538-8.267c-4.231-1.988-10.086-1.413-14.644-1.871c-7.029-0.707-14.136-2.27-21.214-1.608
					c-5.289,0.495-9.702,2.603-14.022,5.513c0.412,1.859,1.456,1.953,3.131,0.281c1.575-0.574,3.311-0.798,4.954-1.078
					c3.9-0.665,7.813-1.333,11.764-1.588c6.74-0.435,13.246,0.957,19.912,1.547c2.43,0.215,4.827-0.045,7.26-0.083
					c3.948-0.061,5.42,4.676,7.001,7.47c3.383,5.978,6.756,11.94,9.581,18.208c1.438-0.841,2.878-1.682,4.316-2.523
					c-0.587-0.882-0.661-2.822-1.012-3.843c-0.547-1.591-1.313-3.136-1.997-4.669c-2.045-4.585-3.844-9.005-6.644-13.223
					c-4.432-6.679-12.566-9.552-20.007-11.247c-12.979-2.957-35.938-2.869-43.657,10.482C22.231,63.215,26.552,65.732,28.165,62.942
					L28.165,62.942z"/>
			</g>
		</g>
		<g display="inline">
			<g>
				<path fill="#761618" d="M69.107,54.413c-5.723-5.019-14.766-3.458-21.601-3.232c-3.216,0.106-3.226,5.107,0,5
					c3.531-0.117,7.035-0.872,10.565-0.379c2.274,0.318,5.702,0.57,7.5,2.146C67.985,60.065,71.536,56.542,69.107,54.413
					L69.107,54.413z"/>
			</g>
		</g>
		<g display="inline">
			<g>
				<path fill="#761618" d="M23.762,87.516c-0.56,2.119-1.784,3.804-2.748,5.736c-1.083,2.172,1.152,4.75,3.42,3.42
					c3.707-2.173,8.845-5.421,10.315-9.661c0.569-1.64-0.895-3.047-2.411-3.165C25.74,83.335,18,83.996,12.245,87.522
					c-3.292,2.017-6.11,7.713-0.937,9.331c4.103,1.283,6.302-5.452,7.279-8.08c2.104-5.661,2.42-14.435,7.514-18.101
					c-1.224-0.498-2.448-0.996-3.672-1.494c1.205,3.7-1.863,8.058-3,11.504c-0.681,2.063,1.86,3.992,3.672,2.823
					c3.356-2.164,4.945-5.574,5.982-9.328c0.866-3.132-3.807-4.363-4.821-1.329c-0.907,2.712-2.374,8.224,1.762,9.241
					c4.072,1.002,7.537-1.591,11.482-1.743c-0.589-1.422-1.179-2.845-1.768-4.268c-1.835,1.859-3.865,2.946-6.161,4.109
					c0.841,1.439,1.682,2.878,2.523,4.317c1.956-1.418,3.982-2.478,6.167-3.5c-0.841-1.439-1.682-2.878-2.523-4.317
					c-3.808,2.499-8.201,4.143-12.738,4.659c0.589,1.422,1.179,2.845,1.768,4.268c2.529-2.713,7.289-5.293,11.065-5.101
					c-0.589-1.422-1.179-2.845-1.768-4.268c-1.912,2.157-4.891,3.25-7.732,3.435c0.804,1.055,1.607,2.11,2.411,3.165
					c0.84-5.006,6.82-9.015,11.018-11.173c-1.01-1.309-2.02-2.618-3.029-3.926c-1.869,1.611-3.997,2.644-6.161,3.776
					c-2.549,1.333-0.772,5.314,1.926,4.569c3.625-1,7.25-2,10.875-3c2.662-0.734,6.829-2.743,9.629-2.333
					c-0.498-1.224-0.996-2.448-1.494-3.672c-1.856,3.19-6.684,4.189-9.922,5.453c-3.798,1.481-7.776,3.099-11.919,2.643
					c0.589,1.422,1.179,2.845,1.768,4.268c2.615-2.958,8.864-4.067,12.479-5.217c5.879-1.869,12.394-3.579,18.586-3.55
					c-0.589-1.422-1.179-2.845-1.768-4.268c-1.598,1.742-5.244,1.922-7.414,2.453c-3.449,0.844-6.933,1.333-10.485,1.314
					c0.222,1.637,0.443,3.274,0.665,4.911c4.762-1.968,9.731-2.712,14.842-3.146c4.116-0.349,11.84-2.033,15.398,0.394
					c-0.169-1.309-0.337-2.618-0.506-3.926c-2.267,2.321-8.37,2.28-11.4,1.857c0,1.607,0,3.214,0,4.821
					c2.982-0.873,5.959-1.229,9.055-1.399c3.046-0.167,7.651-0.95,10.519,0.313c0-1.439,0-2.878,0-4.317
					c-2.83,1.541-6.169,1.466-9.236,2.248c-1.951,0.497-2.629,3.663-0.597,4.569c3.556,1.586,6.762,2.799,9.652,5.542
					c2.716,2.578,4.892,5.745,7.342,8.567c1.179-1.178,2.356-2.357,3.535-3.535c-1.627-1.719-3.337-3.352-4.97-5.065
					c-0.604-0.634-5.598-7.658-3.536-8.675c-1.254-0.72-2.508-1.439-3.762-2.159c-0.241,2.803-3.505,5.027-5.762,6.174
					c1.254,0.72,2.508,1.439,3.762,2.159c0.049-5.407,2.562-11.083-1.232-15.768c-3.3-4.076-11.613-1.704-15.935-1.732
					c0.222,1.637,0.443,3.274,0.665,4.911c2.865-0.882,5.686-1.534,8.668-1.911c-0.421-1.553-0.841-3.106-1.262-4.659
					c-8.423,4.33-17.839,5.89-27.238,5.992c0.42,1.553,0.841,3.106,1.262,4.659c2.059-1.448,4.357-2.432,6.905-2.492
					c-0.42-1.553-0.841-3.106-1.262-4.659c-3.974,3.06-9.458,2.83-14.238,3.159c0.589,1.422,1.179,2.845,1.768,4.268
					c2.346-2.098,5.563-2.629,8.52-3.366c3.723-0.927,7.144-2.784,11.046-2.902c-0.42-1.553-0.841-3.106-1.262-4.659
					c-2.209,1.298-4.676,1.882-7.07,2.748c-2.242,0.812-2.519,4.126,0,4.821c5.337,1.473,12.09,1.829,17.33-0.167
					c2.083-0.793,2.666-4.31,0-4.821c-6.575-1.26-13.099,0.583-19.667-0.333c-0.222,1.637-0.443,3.274-0.665,4.911
					c3.469-0.331,7.054-0.817,10.502-0.089c-0.199-1.523-0.398-3.046-0.597-4.569c-2.942,1.706-6.199,2.33-9.485,3.042
					c-3.41,0.738-6.897,2.687-10.42,2.451c0.589,1.422,1.179,2.845,1.768,4.268c1.965-2.491,4.514-4.298,6.225-7.006
					c1.141-1.806-0.746-4.375-2.823-3.672c-4.521,1.529-8.662,3.843-12.764,6.252c-2.778,1.631-0.263,5.954,2.523,4.317
					c3.723-2.186,7.464-4.36,11.57-5.748c-0.941-1.224-1.882-2.448-2.823-3.672c-1.464,2.317-3.756,3.855-5.442,5.994
					c-1.357,1.721-0.547,4.112,1.768,4.268c3.601,0.242,6.84-1.41,10.259-2.291c4.208-1.083,8.356-1.674,12.169-3.884
					c1.792-1.039,1.567-4.113-0.597-4.569c-3.936-0.831-7.86-0.468-11.831-0.089c-2.585,0.247-3.656,4.494-0.665,4.911
					c6.556,0.914,13.175-0.911,19.667,0.333c0-1.607,0-3.214,0-4.821c-4.428,1.686-10.156,1.412-14.671,0.167
					c0,1.607,0,3.214,0,4.821c2.813-1.018,5.667-1.727,8.264-3.252c2.102-1.234,1.262-4.735-1.262-4.659
					c-4.375,0.133-8.211,1.966-12.375,3.081c-3.93,1.052-7.623,1.876-10.726,4.652c-1.583,1.415-0.382,4.415,1.768,4.268
					c5.602-0.385,12.098-0.25,16.762-3.841c1.812-1.395,1.476-4.724-1.262-4.659c-3.386,0.08-6.662,1.229-9.428,3.175
					c-1.937,1.362-1.385,4.688,1.262,4.659c10.297-0.112,20.545-1.938,29.761-6.675c2.109-1.084,1.238-4.975-1.262-4.659
					c-3.415,0.432-6.701,1.074-9.998,2.089c-2.683,0.826-2.2,4.892,0.665,4.911c3.787,0.025,8.593-1.485,12.17,0.12
					c2.593,1.164,0.018,10.098-0.003,12.38c-0.018,1.984,2.113,2.997,3.762,2.159c4.079-2.074,7.831-5.764,8.238-10.492
					c0.175-2.033-2.216-2.922-3.762-2.159c-9.299,4.59,4.029,17.933,7.494,21.593c2.237,2.364,5.628-1.125,3.535-3.535
					c-2.819-3.248-5.372-6.698-8.5-9.667c-2.739-2.6-6.13-3.719-9.506-5.225c-0.199,1.523-0.398,3.046-0.597,4.569
					c3.564-0.908,7.14-0.96,10.43-2.752c1.524-0.83,1.737-3.552,0-4.317c-3.202-1.412-6.237-1.171-9.695-1.097
					c-4.653,0.099-9.244,0.366-13.731,1.679c-2.179,0.638-2.588,4.459,0,4.821c4.872,0.681,12.564,0.648,16.266-3.143
					c1.184-1.212,0.825-3.019-0.506-3.926c-4.195-2.86-9.935-1.534-14.697-1.287c-6.569,0.341-13.269,1.003-19.396,3.535
					c-2.474,1.022-2.358,4.895,0.665,4.911c4.013,0.021,7.907-0.618,11.814-1.493c3.367-0.754,7.179-1.078,9.62-3.739
					c1.453-1.584,0.479-4.257-1.768-4.268c-6.716-0.031-13.521,1.826-19.915,3.729c-4.519,1.346-11.412,2.799-14.686,6.503
					c-1.533,1.734-0.406,4.028,1.768,4.268c5.456,0.601,10.689-1.848,15.665-3.756c3.939-1.511,8.262-2.978,10.494-6.815
					c0.735-1.264,0.139-3.434-1.494-3.672c-3.136-0.458-5.66,0.498-8.663,1.333c-4.831,1.344-9.667,2.667-14.5,4
					c0.642,1.523,1.284,3.046,1.926,4.569c2.569-1.343,4.973-2.661,7.173-4.558c2.249-1.938-0.614-5.168-3.029-3.926
					c-5.317,2.733-12.26,7.863-13.316,14.161c-0.25,1.493,0.651,3.279,2.411,3.165c4.107-0.267,8.478-1.751,11.268-4.899
					c1.469-1.657,0.465-4.154-1.768-4.268c-5.022-0.256-11.236,2.956-14.601,6.566c-1.339,1.437-0.547,4.531,1.768,4.268
					c5.424-0.617,10.681-2.335,15.262-5.341c2.726-1.789,0.375-5.673-2.523-4.317c-2.185,1.022-4.211,2.082-6.167,3.5
					c-2.583,1.874-0.396,5.796,2.523,4.317c2.659-1.346,5.073-2.763,7.173-4.891c1.484-1.503,0.456-4.353-1.768-4.268
					c-2.035,0.078-3.975,0.762-5.918,1.317c-1.117,0.319-2.239,0.601-3.398,0.711c-0.133,0.013,0.608-2.344,0.894-3.197
					c-1.607-0.443-3.214-0.886-4.821-1.329c-0.665,2.405-1.478,4.917-3.685,6.339c1.224,0.941,2.448,1.882,3.672,2.823
					c1.511-4.58,4.615-9.201,3-14.163c-0.459-1.412-2.297-2.484-3.672-1.494c-6.338,4.561-6.971,12.307-9.187,19.26
					c-0.506,1.587-1.085,3.146-1.796,4.653c-0.314,0.667-0.683,1.311-1.178,1.86c0.862,0.124,1.724,0.247,2.586,0.37
					c0.5-0.5,1.066-0.911,1.698-1.229c4.561-2.794,11.482-2.821,16.639-2.421c-0.804-1.055-1.607-2.11-2.411-3.165
					c-0.951,2.742-5.65,5.284-8.018,6.672c1.14,1.14,2.28,2.28,3.42,3.42c1.163-2.33,2.581-4.39,3.252-6.93
					C29.408,85.724,24.585,84.401,23.762,87.516L23.762,87.516z"/>
			</g>
		</g>
	</g>
	<g id="black" display="none">
		<g display="inline">
			<g>
				<path fill="#261412" d="M12.923,108.222c0.095-4.092,0.498-8.012-0.964-11.915c-0.99-2.643-4.723-2.228-4.911,0.665
					c-0.104,1.123-0.146,2.248-0.125,3.375c1.422-0.589,2.845-1.179,4.268-1.768c-1.031-1.099-0.231-5.194-0.146-6.564
					c0.165-2.674-0.046-5.303-0.15-7.98c-0.296-7.587,3.814-14.57,7.855-20.682c3.977-6.015,9.971-9.041,15.842-12.894
					c6.324-4.151,13.713-5.814,21.183-6.255c6.916-0.409,13.156,2.274,19.603,4.448c7.335,2.474,12.038,6.646,16.247,13.035
					c4.016,6.097,8.614,11.927,9.485,19.421c0.335,2.884,0.4,5.8,0.765,8.695c0.267,2.124,1.129,10.604-2.286,9.259
					c-3.004-1.183-4.294,3.654-1.33,4.822c7.068,2.782,8.993-5.717,8.883-11.107c-0.165-7.985-1.101-16.404-4.735-23.575
					c-3.654-7.21-9.031-15.507-15.549-20.41c-3.373-2.538-7.652-4.119-11.617-5.456c-4.01-1.352-8.522-3.527-12.737-3.954
					c-8.928-0.905-18.037,0.764-26.225,4.34c-4.31,1.882-8.326,5.034-12.296,7.544c-3.463,2.19-6.263,4.901-8.632,8.229
					c-5.166,7.254-9.402,15.472-9.455,24.54c-0.022,3.793,0.103,7.515-0.002,11.312c-0.065,2.37,0.071,4.965,1.764,6.768
					c1.522,1.622,4.248,0.354,4.268-1.768c-0.021-1.127,0.021-2.252,0.125-3.375c-1.637,0.222-3.274,0.443-4.911,0.665
					c1.302,3.477,0.87,6.958,0.786,10.585C7.848,111.449,12.848,111.441,12.923,108.222L12.923,108.222z"/>
			</g>
		</g>
		<g display="inline">
			<g>
				<path fill="#261412" d="M14.832,108.609c2.054-4.019,4.641-7.465,7.734-10.744c-1.393-0.811-2.786-1.622-4.178-2.432
					c-0.354,1.313-1.056,2.363-2.107,3.147c1.309,1.01,2.618,2.02,3.926,3.029c3.63-4.93,9.368-7.462,13.871-11.371
					c2.799-2.43,4.676-4.867,8.658-5.172c4.262-0.327,6.445,2.987,10.115,4.249c5.068,1.743,7.84-1.273,11.201-4.653
					c2.424-2.438,6.314-5.33,9.903-3.683c3.427,1.572,6.185,7.302,8.576,10.262c3.396,4.205,8.311,9.339,13.131,11.891
					c4.474,2.369,5.818-1.545,7.201-5.003c2.189-5.476,0.765-11.969-0.204-17.551c-1.267-7.302-4.364-12.922-8.452-18.991
					c-3.352-4.977-6.441-9.23-11.848-12.137c-6.002-3.227-13.365-5.23-20.004-6.562c-5.708-1.146-11.898-1.541-17.608-0.261
					c-6.049,1.356-11.421,5.055-16.449,8.481c-4.233,2.885-8.449,7.616-11.38,11.807c-4.009,5.733-6.329,12.552-7.727,19.362
					C8.3,86.61,7.368,92.544,7.972,96.974c0.42,3.078,3.724,7.093,7.227,5.042c0.629-0.368,1.319-1.268,1.447-2.003
					c0.411-2.363,1.176-2.686,3.483-3.485c3.613-1.253,5.404-3.889,7.687-6.787c1.371-1.739,4.208-1.677,6.049-2.591
					c2.172-1.078,4.098-2.518,6.199-3.719c2.483-1.419,6.391-0.691,8.983-0.141c2.454,0.521,3.563,2.341,5.599,3.244
					c2.334,1.036,4.098,0.135,5.436-2.049c0.948-1.547,13.309-8.605,15.354-6.836c1.342,1.161,2.237,3.458,3.272,4.903
					c1.343,1.874,3.22,3.319,4.947,4.814c3.514,3.042,4.73,7.86,8.25,11c1.979,1.766,4.275,2.063,6.604,0.984
					c3.196-1.483,2.538-6.158,1.815-8.729c-1.303-4.631-0.49-9.913-1.615-14.688c-1.186-5.028-3.444-10.006-6.404-14.222
					c-5.331-7.592-13.513-11.388-22.1-13.981c-9.251-2.794-18.336-5.021-27.572-1.168c-2.93,1.223-1.646,6.063,1.329,4.821
					c10.621-4.432,24.687-0.4,34.553,4.819c12.989,6.872,15.772,20.37,16.657,33.77c0.078,0.664,0.188,1.323,0.329,1.977
					c0.489,2.671-1.201,2.043-2.508,0.223c-1.441-2.01-2.299-4.38-3.89-6.298c-1.613-1.945-3.616-3.465-5.441-5.203
					c-1.929-1.836-2.996-4.503-4.692-6.558c-3.205-3.883-7.527-1.231-10.998,0.466c-2.533,1.239-5.467,1.77-7.937,3.11
					c-2.055,1.116-3.047,3.815-4.859,4.763c0.841,0,1.682,0,2.523,0c-1.717-0.762-2.86-2.412-4.732-3.123
					c-2.446-0.93-4.902-1.353-7.498-1.584c-6.706-0.597-10.349,4.116-16.396,5.69c-2.374,0.618-4.161,1.965-5.66,3.868
					c-2.076,2.636-3.696,4.023-6.845,5.209c-1.74,0.655-2.866,1.606-3.931,3.074c-0.456,0.629-0.572,1.601-0.683,2.338
					c0.982-0.691,1.289-1.602,0.919-2.732c0.05-0.922,0.146-1.84,0.288-2.753c0.897-6.604,1.435-12.624,3.786-18.962
					c1.351-3.643,3.247-7.092,5.991-9.861c2.704-2.728,4.677-5.98,7.88-8.19c5.142-3.547,10.33-6.874,16.5-8.256
					c7.594-1.703,16.57,0.814,23.724,3.255c7.694,2.625,13.403,5.343,17.969,12.309c4.482,6.839,7.711,12.756,9.129,20.93
					c0.664,3.827,1.171,7.748,0.372,11.585c-0.141,0.68-0.572,3.438-1.483,2.955c-1.413-0.749-2.571-2.233-3.664-3.361
					c-2.38-2.457-5.05-4.541-7.301-7.137c-2.765-3.189-4.989-6.832-7.953-9.847c-2.951-3.001-7.909-2.951-11.437-1.145
					c-2.303,1.179-4.257,2.672-6.16,4.413c-1.326,1.212-2.806,3.596-4.702,3.831c-1.825,0.226-4.665-2.338-6.051-3.346
					c-3.756-2.732-9.924-1.813-13.687,0.311c-2.091,1.181-3.805,3.158-5.534,4.781c-2.477,2.325-5.688,3.712-8.24,6.006
					c-2.29,2.058-4.575,3.881-6.413,6.377c-1.749,2.375,1.935,4.882,3.926,3.029c1.684-1.565,2.74-3.155,3.393-5.353
					c0.708-2.38-2.46-4.254-4.178-2.432c-3.38,3.583-6.269,7.359-8.516,11.756C9.05,108.95,13.364,111.481,14.832,108.609
					L14.832,108.609z"/>
			</g>
		</g>
		<g display="inline">
			<g>
				<path fill="#261412" d="M39.53,48.455c-1.352,1.101-3.137,1.699-4.619,2.609c-2.308,1.417-4.444,3.325-6.642,4.919
					c-3.721,2.697-6.442,5.827-8.711,9.813c-5.087,8.934-8.608,17.927-8.76,28.302c-0.027,1.867,2.154,3.154,3.762,2.159
					c2.648-1.639,3.829-4.511,6.541-6.057c3.363-1.917,6.951-3.02,10.272-5.144c7.078-4.526,15.071-6.801,23.245-8.585
					c4.566-0.996,9.307-1.075,13.958-1.238c4.344-0.153,8.133-1.052,11.46,2.302c2.238,2.255,4.04,5.055,6.139,7.448
					c2.761,3.148,5.456,6.177,7.466,9.878c1.354,2.496,5.391,0.787,4.569-1.926c-0.779-2.571,0.047-5.189,0.214-7.797
					c0.183-2.873-1.211-6.028-1.714-8.828c-0.919-5.108-2.394-9.729-5.503-13.945C84.713,53.559,70.67,49.41,60.445,47.468
					c-4.768-0.905-9.963-1.072-14.734-0.197c-2.403,0.441-4.383,1.85-6.208,3.375c-2.858,2.386-5.903,4.034-9.139,5.819
					c-4.509,2.488-6.746,7.037-8.94,11.462c-2.63,5.305-6.916,10.5-7.787,16.505c-0.23,1.585,0.634,3.156,2.411,3.165
					c1.381,0.007,2.324-0.45,3.433-1.263c2.463-1.806,4.646-3.043,7.544-4.17c4.942-1.922,10.274-2.891,14.91-5.533
					c2.298-1.31,1.1-4.463-1.262-4.659c-7.47-0.619-21.268,3.829-22.786,12.335c-0.508,2.846,2.886,4.255,4.569,1.926
					c4.378-6.059,11.067-6.587,17.612-8.768c3.117-1.039,5.957-2.484,9.196-3.148c3.173-0.651,6.477-0.509,9.67-1.051
					c6.508-1.104,13.154-1.496,19.352,1.239c2.539,1.121,5.201,1.91,7.734,3.041c2.071,0.925,4.708,5.398,5.027,7.925
					c1.423-0.589,2.845-1.179,4.268-1.768c-2.567-3.064-4.672-12.737-10.706-9.99c-5.557,2.53-0.309,7.201,3.252,8.036
					c10.813,2.535,3.369-13.881,1.283-17.585c-3.417-6.068-10.553-8.167-16.635-10.448c-7.405-2.777-15.203-5.539-23.251-4.406
					c-2.978,0.419-6.13,1.009-8.462,3.083c-3.409,3.029-7.444,4.966-11.061,7.712c-3.005,2.282-4.393,4.98-6.049,8.276
					c-1.795,3.571-4.402,5.22-5.049,9.425c-0.341,2.216,2.35,4.524,4.178,2.432c3.776-4.321,9.097-4.048,14.248-5.828
					c5.845-2.021,12.709-1.317,18.804-2.115c5.287-0.692,10.474-1.773,15.832-1.491c5.983,0.315,11.206,3.008,16.685,5.077
					c3.022,1.141,4.316-3.694,1.33-4.821c-5.498-2.075-10.479-4.473-16.432-5.091c-7.087-0.735-13.971,0.999-20.983,1.752
					c-6.216,0.668-12.299,0.394-18.29,2.464c-3.093,1.069-6.379,1.201-9.489,2.179c-2.184,0.687-3.801,2.694-5.239,4.339
					c1.393,0.811,2.786,1.622,4.178,2.432c0.64-4.159,4.077-7.105,5.827-10.889c2.034-4.397,7.087-6.605,11.024-8.992
					c1.741-1.055,3.053-2.63,4.75-3.75c2.077-1.37,5.408-1.375,7.778-1.425c5.169-0.109,10.005,1.461,14.801,3.169
					c4.582,1.631,9.448,3.132,13.611,5.68c3.194,1.955,4.545,5.543,5.958,8.803c0.478,1.102,0.886,2.225,1.254,3.367
					c0.427,1.325,0.001,1.901,0.868,1.813c-1.626-0.691-2.275,0.21-1.949,2.703c0.454,0.812,0.87,1.644,1.246,2.495
					c0.89,1.892,1.813,3.529,3.153,5.128c1.329,1.586,4.538,0.371,4.268-1.768c-0.843-6.668-4.62-11.213-10.71-13.583
					c-7.621-2.965-14.286-5.049-22.596-4.259c-4.178,0.397-8.359,1.074-12.539,1.538c-4.116,0.457-7.622,2.071-11.465,3.477
					c-8.1,2.963-15.174,3.557-20.6,11.065c1.523,0.642,3.046,1.284,4.569,1.926c1.096-6.141,12.653-9.104,17.964-8.665
					c-0.42-1.553-0.841-3.106-1.262-4.659c-4.229,2.41-9.197,3.272-13.715,5.029c-2.112,0.821-4.396,1.471-6.351,2.631
					c-0.857,0.509-2.38,2.628-3.297,2.624c0.804,1.055,1.607,2.11,2.411,3.165c0.644-4.439,3.504-8.648,5.714-12.474
					c2.583-4.47,4.171-9.604,8.715-12.505c1.817-1.161,3.828-2.025,5.672-3.152c2.315-1.414,4.138-3.454,6.455-4.853
					c3.931-2.373,11.643-0.956,15.815-0.163c9.622,1.827,22.208,6.054,27.698,14.659c2.663,4.174,2.995,9.139,4.062,13.831
					c1.013,4.455-0.51,8.841,0.797,13.156c1.523-0.642,3.047-1.284,4.569-1.926c-1.943-3.582-4.465-6.635-7.159-9.671
					c-2.756-3.104-5.154-6.579-8.075-9.522c-1.804-1.818-4.622-3.223-7.221-3.189c-5.367,0.07-10.802,0.313-16.148,0.8
					c-8.742,0.794-18.668,3.328-26.43,7.476c-4.187,2.237-7.762,4.996-12.237,6.732c-1.403,0.544-2.859,1.155-4.031,2.119
					c-1.708,1.405-2.732,3.691-4.619,4.859c1.254,0.72,2.508,1.439,3.762,2.159c0.149-10.145,3.965-18.557,8.909-27.238
					c4.117-7.23,12.273-9.914,18.359-14.869C45.567,49.953,42.007,46.438,39.53,48.455L39.53,48.455z"/>
			</g>
		</g>
		<g display="inline">
			<g>
				<path fill="#261412" d="M89.709,69.808c-2.452-6.3-8.263-9.474-14.175-12.13c-6.464-2.904-14.896-5.438-21.986-5.83
					c-6.542-0.362-10.065-0.359-13.605,5.47c-0.95,1.563-4.207,2.253-5.892,2.97c-1.474,0.627-2.824,2.255-3.802,3.433
					c-1.903,2.289-4.316,4.003-5.362,6.837c-0.77,2.086,1.902,3.932,3.672,2.823c3.77-2.36,8.214-2.157,12.488-2.659
					c5.575-0.654,10.951-1.991,16.594-2.197c5.763-0.21,11.578,0.017,17.344,0.103c1.638,0.024,3.261,0.241,4.897,0.247
					c0.67-0.006,1.339-0.007,2.009-0.004c1.289,0.001,1.893,0.585,1.741-0.429c0.214-0.811,0.429-1.622,0.643-2.433
					c0.188-0.154-3.799-2.044-4.02-2.136c-2.963-1.229-5.913-2.486-8.876-3.712c-5.788-2.396-11.857-3.255-17.82-5.094
					c-4.909-1.515-9.693-0.619-14.149,1.715c-1.873,0.981-3.325,2.6-5.195,3.641c-1.729,0.961-3.18,1.949-4.202,3.662
					c-0.773,1.297-0.108,3.379,1.494,3.672c5.307,0.97,10.916-0.437,16.173-1.311c7.681-1.277,15.484-1.097,23.242-1.225
					c2.946-0.049,3.241-3.954,0.665-4.911c-5.143-1.91-11.002-0.924-16.383-1.64c-5.607-0.747-12.871-1.924-18.322,0.015
					c-2.694,0.958-2.186,4.7,0.665,4.911c4.484,0.331,17.207-7.578,9.826-11.917c-4.669-2.745-16.545,4.193-18.485,8.53
					c-1.305,2.917,3.003,5.462,4.317,2.523c1.221-2.73,6.007-4.548,8.581-5.592c0.835-0.338,1.696-0.584,2.566-0.811
					c1.229-0.321,0.258-1.371-0.946-0.167c-1.337,1.337-3.947,2.574-5.859,2.433c0.222,1.637,0.443,3.274,0.665,4.911
					c4.455-1.585,10.697-0.564,15.335-0.051c5.279,0.584,11.747-0.167,16.71,1.676c0.222-1.637,0.443-3.274,0.665-4.911
					c-6.3,0.104-12.593,0.07-18.875,0.625c-6.187,0.547-13.03,3.219-19.21,2.089c0.498,1.224,0.996,2.448,1.494,3.672
					c1.032-1.731,3.791-2.535,5.353-3.728c3.425-2.616,6.397-4.004,10.824-3.373c2.818,0.402,5.533,1.612,8.322,2.215
					c3.311,0.717,6.422,1.293,9.577,2.585c3.009,1.231,21.438,12.113,19.927,2c-0.432-2.886-5.63-2.436-7.504-2.438
					c-6.41-0.005-12.839-0.33-19.258-0.383c-6.605-0.054-12.911,0.893-19.397,2.028c-5.543,0.97-11.19,0.451-16.139,3.548
					c1.224,0.941,2.448,1.882,3.672,2.823c0.617-1.67,2.968-3.199,4.076-4.631c1.999-2.584,4.289-2.674,6.885-4.153
					c1.58-0.9,2.528-1.8,3.591-3.261c2.315-3.184,4.349-3.29,8.105-3.037c5.572,0.375,11.089,2.186,16.451,3.739
					c5.437,1.576,13.834,4.845,16.07,10.593C86.043,74.107,90.88,72.816,89.709,69.808L89.709,69.808z"/>
			</g>
		</g>
	</g>
	<g id="Livello_2">
		<path fill="#FFFFFF" d="M69.655,78.011c-0.64-1.506-1.716-2.891-3.215-3.552c-1.346-0.595-2.985-0.598-4.09-1.569
			c-0.821-0.721-1.343-1.954-2.426-2.083c-1.491-0.183-2.792,1.97-4.141,1.297c-0.353-0.177-0.591-0.519-0.804-0.852
			c-0.783-1.228-1.476-2.582-2.666-3.421c-2.504-1.771-6.572-0.841-8.382-3.315c-0.913-1.246-0.868-2.917-1.046-4.451
			c-0.178-1.535-0.845-3.274-2.336-3.674c-1.584-0.426-3.115,0.952-3.81,2.439c-0.57,1.22-0.824,2.585-0.73,3.929
			c0.285,4.054,3.595,7.465,3.698,11.528c0.04,1.643-0.455,3.246-0.945,4.815c-0.661,2.114-0.805,4.356-1.419,6.481
			c2-0.061,4.267,1.165,6.441,2.053c1.211-0.165,2.33,0.201,3.235,0.881c0.014,0,0.028,0.003,0.042,0.004
			c1.738,0.073,5.537,2.727,7.276,2.657c1.364-0.055,2.502-0.284,3.525-0.604c0.588-0.677,1.244-1.344,1.413-1.485
			c1.562-1.305,3.604-1.448,4.667-3.248c0.91-1.541,2.223-2.543,3.623-3.594c0.874-0.656,1.92-0.895,2.993-0.848
			C70.362,80.24,70.109,79.091,69.655,78.011z"/>
		<g opacity="0.9">
			<g>
				<defs>
					<rect id="SVGID_1_" x="56.77" y="97.994" width="2.534" height="2.535"/>
				</defs>
				<clipPath id="SVGID_2_">
					<use xlink:href="#SVGID_1_"  overflow="visible"/>
				</clipPath>
			</g>
		</g>
		<path fill-rule="evenodd" clip-rule="evenodd" fill="#FFFFFF" stroke="#FFFFFF" stroke-miterlimit="10" d="M48.292,53.187
			c0.418-0.433,0.769-0.955,0.895-1.542c0.129-0.59,0.009-1.252-0.404-1.691c-0.198-0.209-0.454-0.36-0.723-0.463
			c-1.066-0.404-2.337-0.011-3.125,0.815c-0.788,0.825-1.125,2.011-1.078,3.151c0.011,0.303-0.011,0.685,0.231,0.867
			C45.757,55.579,47.322,54.193,48.292,53.187"/>
		<path fill="#FFFFFF" stroke="#FFFFFF" stroke-width="2.252" stroke-miterlimit="10" d="M34.6,52.193
			c-0.031,0-0.064,0.003-0.097,0.005c-0.49,0.051-0.931,0.379-1.152,0.817c-0.205,0.404-0.224,0.914,0.01,1.3
			c0.203,0.335,0.606,0.544,0.988,0.501c0.494,0.003,0.992-0.221,1.284-0.619c0.286-0.391,0.346-0.948,0.112-1.374
			C35.522,52.424,35.06,52.182,34.6,52.193z"/>
		<path fill-rule="evenodd" clip-rule="evenodd" fill="#FFFFFF" stroke="#FFFFFF" stroke-miterlimit="10" d="M45.681,62.949
			c0.422,0.325,0.92,0.574,1.452,0.606c0.532,0.032,1.098-0.185,1.39-0.63c0.269-0.405,0.277-0.95,0.093-1.399
			c-0.183-0.452-0.538-0.816-0.941-1.087c-0.233-0.157-0.489-0.288-0.763-0.347c-0.72-0.152-1.521,0.278-1.791,0.964
			c-0.271,0.685,0.021,1.546,0.652,1.926"/>
		<path fill="#FFFFFF" stroke="#FFFFFF" stroke-width="2.252" stroke-miterlimit="10" d="M53.292,63.634
			c-0.34-0.195-0.786-0.212-1.092,0.032C51.771,64.009,51.86,64.829,52.38,65c0,0,0.432,0.142,0.611,0.2
			c0.226-0.002,0.443-0.052,0.604-0.208c0.272-0.263,0.248-0.728,0.04-1.042C53.547,63.821,53.427,63.713,53.292,63.634z"/>
		<path fill="#FFFFFF" stroke="#FFFFFF" stroke-width="2.252" stroke-miterlimit="10" d="M32.262,71.883
			c0.248-0.035,0.487-0.126,0.672-0.291c0.493-0.437,0.421-1.294-0.036-1.768c-0.515-0.535-1.432-0.828-2.076-0.489
			c-0.441,0.232-0.553,0.891-0.424,1.382c0.194,0.744,1.001,1.242,1.769,1.178C32.199,71.892,32.23,71.888,32.262,71.883z"/>
		<path fill="#FFFFFF" stroke="#FFFFFF" stroke-width="2.252" stroke-miterlimit="10" d="M31.808,61.084
			c-0.49-0.262-1.168-0.026-1.423,0.469c-0.215,0.421-0.226,1.104,0.194,1.32c0.48,0.249,1.152,0.058,1.51-0.343
			c0.373-0.418,0.22-1.168-0.269-1.441C31.815,61.088,31.812,61.085,31.808,61.084z"/>
		<path fill-rule="evenodd" clip-rule="evenodd" fill="#FFFFFF" stroke="#FFFFFF" stroke-miterlimit="10" d="M22.596,63.901
			c-0.369,0.019-0.722,0.207-1.001,0.455c-0.485,0.429-0.802,1.101-0.658,1.734c0.144,0.632,0.849,1.126,1.461,0.914
			c0,0,0.339-0.117,0.671-0.233c0.396-0.255,0.705-0.629,0.82-1.083c0.204-0.795-0.37-1.756-1.189-1.786
			C22.665,63.9,22.63,63.9,22.596,63.901"/>
	</g>
	<g>
		<g>
			<path fill-rule="evenodd" clip-rule="evenodd" fill="none" d="M119.491,88.913c0,20.74-0.011,41.48,0.03,62.221
				c0.003,1.09-0.214,1.305-1.304,1.304c-41.374-0.036-82.749-0.036-124.123,0c-1.09,0.001-1.304-0.214-1.303-1.304
				c0.036-41.48,0.036-82.961,0-124.441c-0.001-1.09,0.213-1.304,1.303-1.303c41.375,0.036,82.749,0.036,124.123,0
				c1.09-0.001,1.307,0.213,1.304,1.303C119.48,47.432,119.491,68.172,119.491,88.913z M55.939,36.108
				c-2.789-0.082-5.539,0.136-8.263,0.581c-12.84,2.098-23.408,8.198-31.675,18.223C5.599,67.526,2.319,82.181,4.666,98.027
				c1.856,12.53,8.16,22.938,17.38,31.588c6.377,5.982,13.889,9.896,22.337,11.902c9.385,2.229,18.694,1.767,27.896-1.29
				c11.077-3.679,19.75-10.529,26.523-19.868c3.503-4.83,5.761-10.271,7.789-15.909c2.643-7.346,2.872-14.739,1.9-22.255
				c-1.34-10.372-5.576-19.504-12.513-27.354C85.34,42.798,72.093,36.328,55.939,36.108z"/>
			<path fill-rule="evenodd" clip-rule="evenodd" d="M55.939,36.108c16.154,0.22,29.401,6.689,40.041,18.731
				c6.937,7.85,11.173,16.983,12.513,27.354c0.972,7.517,0.742,14.909-1.9,22.255c-2.028,5.639-4.286,11.079-7.789,15.909
				c-6.773,9.339-15.446,16.189-26.523,19.868c-9.202,3.057-18.512,3.52-27.896,1.29c-8.448-2.007-15.959-5.92-22.337-11.902
				c-9.221-8.65-15.524-19.058-17.38-31.588C2.319,82.181,5.599,67.526,16.001,54.912c8.268-10.025,18.835-16.125,31.675-18.223
				C50.4,36.245,53.15,36.026,55.939,36.108z M6.823,90.005c0,1.182-0.02,2.295,0.003,3.409c0.112,5.262,1.464,10.252,3.442,15.082
				c0.802,1.96,0.939,1.945,2.299,0.359c5.011-5.843,10.469-11.256,16.041-16.55c2.877-2.734,5.938-5.279,9.058-7.747
				c1.902-1.505,3.803-1.835,6.046-0.822c2.236,1.009,4.252,2.373,6.368,3.578c3.996,2.275,3.811,2.97,8.152-0.638
				c0.935-0.777,1.752-1.695,2.639-2.532c1.272-1.199,2.508-2.445,3.852-3.56c4.133-3.429,6.312-3.309,10.211,0.316
				c4.438,4.123,8.14,8.907,12.179,13.387c2.767,3.068,5.368,6.326,8.971,8.484c4.545,2.724,8.49,0.853,9.356-4.357
				c0.814-4.893,1-9.813,0.349-14.729c-2.471-18.631-12.48-31.661-29.701-38.93c-7.665-3.235-15.833-4.512-24.224-3.757
				c-10.035,0.902-19.01,4.549-26.876,10.742c-5.889,4.637-10.61,10.28-13.668,17.262C8.364,75.743,6.378,82.634,6.823,90.005z
				 M56.165,139.282c1.979,0.144,3.921-0.226,5.877-0.336c0.369-0.021,0.734-0.104,1.101-0.155
				c11.011-1.559,20.543-6.12,28.478-13.962c4.704-4.648,8.265-10.054,10.87-16.113c0.381-0.884,0.414-1.298-0.825-1.283
				c-1.883,0.022-3.663-0.58-5.245-1.63c-5.391-3.576-9.782-8.254-14.175-12.927c-2.611-2.779-4.909-5.845-7.685-8.472
				c-2.41-2.28-5.553-2.356-7.666-0.142c-2.229,2.336-4.356,4.771-6.551,7.142c-0.598,0.646-0.547,1.082,0.258,1.442
				c1.546,0.695,3.065,1.45,4.706,1.923c0.562,0.162,1.292,0.165,1.05,1.197c-0.21,0.895-0.666,1.124-1.466,0.988
				c-1.149-0.194-2.31-0.341-3.443-0.6c-5.264-1.201-10.166-3.225-14.754-6.121c-3.375-2.131-4.89-1.835-7.843,0.716
				c-5.25,4.538-10.222,9.381-15.378,14.02c-3.133,2.819-6.098,5.923-10.026,7.73c-1.027,0.473-0.728,1.066-0.296,1.782
				c3.685,6.104,8.445,11.174,14.191,15.42C35.939,136.253,45.634,139.006,56.165,139.282z"/>
			<path fill-rule="evenodd" clip-rule="evenodd" fill="none" d="M6.823,90.005c-0.445-7.371,1.541-14.262,4.495-21.004
				c3.059-6.982,7.78-12.625,13.668-17.262c7.866-6.193,16.842-9.84,26.876-10.742c8.391-0.755,16.559,0.522,24.224,3.757
				c17.221,7.269,27.23,20.299,29.701,38.93c0.651,4.916,0.466,9.836-0.349,14.729c-0.866,5.21-4.812,7.081-9.356,4.357
				c-3.603-2.158-6.204-5.416-8.971-8.484c-4.039-4.48-7.741-9.264-12.179-13.387c-3.899-3.625-6.078-3.745-10.211-0.316
				c-1.344,1.115-2.579,2.361-3.852,3.56c-0.887,0.836-1.704,1.755-2.639,2.532c-4.342,3.608-4.157,2.913-8.152,0.638
				c-2.116-1.205-4.132-2.569-6.368-3.578c-2.243-1.013-4.144-0.683-6.046,0.822c-3.12,2.468-6.181,5.013-9.058,7.747
				c-5.571,5.293-11.03,10.707-16.041,16.55c-1.36,1.586-1.497,1.601-2.299-0.359c-1.978-4.83-3.33-9.82-3.442-15.082
				C6.803,92.3,6.823,91.187,6.823,90.005z"/>
			<path fill-rule="evenodd" clip-rule="evenodd" fill="none" d="M56.165,139.282c-10.53-0.275-20.226-3.028-28.823-9.38
				c-5.747-4.246-10.507-9.315-14.191-15.42c-0.432-0.716-0.731-1.31,0.296-1.782c3.929-1.808,6.894-4.911,10.026-7.73
				c5.156-4.639,10.128-9.482,15.378-14.02c2.953-2.552,4.467-2.847,7.843-0.716c4.588,2.896,9.49,4.92,14.754,6.121
				c1.134,0.259,2.294,0.405,3.443,0.6c0.8,0.136,1.256-0.093,1.466-0.988c0.242-1.033-0.488-1.035-1.05-1.197
				c-1.641-0.473-3.16-1.228-4.706-1.923c-0.805-0.361-0.855-0.796-0.258-1.442c2.194-2.371,4.321-4.805,6.551-7.142
				c2.113-2.215,5.256-2.138,7.666,0.142c2.775,2.627,5.073,5.693,7.685,8.472c4.393,4.673,8.784,9.351,14.175,12.927
				c1.582,1.05,3.362,1.652,5.245,1.63c1.239-0.015,1.206,0.399,0.825,1.283c-2.605,6.06-6.166,11.465-10.87,16.113
				c-7.935,7.842-17.467,12.403-28.478,13.962c-0.366,0.052-0.731,0.135-1.101,0.155C60.086,139.056,58.144,139.425,56.165,139.282z
				"/>
		</g>
	</g>
</g>
<g id="Livello_4">
	<circle fill-rule="evenodd" clip-rule="evenodd" cx="56.657" cy="14.347" r="6"/>
	<g>
		<g>
			<g>
				<rect x="6.502" y="166.727" fill="none" width="99.999" height="6.17"/>
				
					<text transform="matrix(0.9971 0 0 1 19.646 172.3843)" font-family="'AlfaSlabOne-Regular'" font-size="7.2712" letter-spacing="1.003">A KITEBBEER</text>
				<rect x="31.535" y="188.556" fill="none" width="49.847" height="3.604"/>
				
					<text transform="matrix(0.9971 0 0 1 49.1274 192.0796)" display="none" font-family="'Lobster1.4'" font-size="5.0341" letter-spacing="1.003">Birra </text>
				<polygon points="3.835,165.577 3.835,162.413 109.169,162.413 109.169,165.577 110.02,165.577 110.02,161.556 2.982,161.556 
					2.982,165.577 				"/>
				<g>
					<g>
						<polygon points="29.89,177.979 3.835,177.979 3.835,174.814 2.982,174.814 2.982,178.835 29.89,178.835 						"/>
						<polygon points="109.169,174.814 109.169,177.979 83.111,177.979 83.111,178.835 110.02,178.835 110.02,174.814 						"/>
					</g>
				</g>
			</g>
		</g>
		<polygon points="3.567,169.218 3.89,169.875 4.615,169.98 4.091,170.491 4.215,171.212 3.567,170.871 2.918,171.212 
			3.042,170.491 2.518,169.98 3.243,169.875 		"/>
		<polygon points="109.573,169.218 109.897,169.875 110.621,169.98 110.097,170.491 110.221,171.212 109.573,170.871 
			108.925,171.212 109.049,170.491 108.523,169.98 109.249,169.875 		"/>
	</g>
	<rect x="6.976" y="175.75" fill="none" width="99.998" height="7.723"/>
	
		<text transform="matrix(0.9971 0 0 1 37.6631 181.9731)" fill="#FDE651" stroke="#000000" stroke-width="0.25" stroke-miterlimit="10" font-family="'AlfaSlabOne-Regular'" font-size="8" letter-spacing="1.003">BLOND</text>
	<rect y="176.064" fill="none" width="113.386" height="8.658"/>
	
		<text transform="matrix(0.9971 0 0 1 36.1411 182.2876)" display="none" fill="#E35D28" stroke="#000000" stroke-width="0.25" stroke-miterlimit="10" font-family="'AlfaSlabOne-Regular'" font-size="8" letter-spacing="1.003">AMBER</text>
	<rect x="19.738" y="175.927" fill="none" width="74.544" height="10.6"/>
	
		<text transform="matrix(0.9971 0 0 1 45.9424 182.1509)" display="none" fill="#751617" stroke="#000000" stroke-width="0.25" stroke-miterlimit="10" font-family="'AlfaSlabOne-Regular'" font-size="8" letter-spacing="1.003">RED</text>
	<rect x="19.738" y="175.927" fill="none" width="74.544" height="8.42"/>
	
		<text transform="matrix(0.9971 0 0 1 38.4883 182.1509)" display="none" fill="#251311" stroke="#000000" stroke-width="0.25" stroke-miterlimit="10" font-family="'AlfaSlabOne-Regular'" font-size="8" letter-spacing="1.003">BLACK</text>
</g>
</svg>
