<svg xmlns="http://www.w3.org/2000/svg" width="32" height="32" viewBox="0 0 32 32">
  <g id="icon-link-facebook" transform="translate(4 -13)">
    <g id="Livello_2" data-name="Livello 2" transform="translate(-4 13)">
      <g id="Livello_1" data-name="Livello 1">
        <path id="Path_82" data-name="Path 82" d="M18.388,19.361v9.705H14.046V19.361H10.52V15.348h3.526V12.3c0-3.481,2.075-5.408,5.249-5.408a21.247,21.247,0,0,1,3.107.272v3.4H20.656a2.018,2.018,0,0,0-2.268,2.177v2.6h3.855L21.62,19.35Z" transform="translate(1.56 1.176)" fill="#e2071e"/>
        <path id="Path_83" data-name="Path 83" d="M27.429,2.286a2.286,2.286,0,0,1,2.286,2.286V27.429a2.286,2.286,0,0,1-2.286,2.286H4.571a2.286,2.286,0,0,1-2.286-2.286V4.571A2.286,2.286,0,0,1,4.571,2.286H27.429m0-2.286H4.571A4.571,4.571,0,0,0,0,4.571V27.429A4.571,4.571,0,0,0,4.571,32H27.429A4.571,4.571,0,0,0,32,27.429V4.571A4.571,4.571,0,0,0,27.429,0Z" fill="#0065ab"/>
      </g>
    </g>
  </g>
</svg>
