<svg xmlns="http://www.w3.org/2000/svg" width="37.5" height="30" viewBox="0 0 37.5 30">
  <g id="icon-link-hub" transform="translate(6.75 -22.75)">
    <g id="Component_15_8" data-name="Component 15 – 8" transform="translate(-6.75 22.75)">
      <path id="Path_86" data-name="Path 86" d="M17.654-2.654a3.782,3.782,0,0,0-.557-.457A3.726,3.726,0,0,0,15-3.75a3.726,3.726,0,0,0-2.1.639,3.484,3.484,0,0,0-.533.439L6.99-5.9A6.537,6.537,0,0,0,7.5-8.437,6.559,6.559,0,0,0,.938-15a6.691,6.691,0,0,0-1.887.3l-2.3-4.928A3.7,3.7,0,0,0-1.875-22.5a3.726,3.726,0,0,0-.639-2.1,3.791,3.791,0,0,0-1.014-1.014,3.726,3.726,0,0,0-2.1-.639,3.726,3.726,0,0,0-2.1.639A3.791,3.791,0,0,0-8.736-24.6a3.726,3.726,0,0,0-.639,2.1,3.753,3.753,0,0,0,3.75,3.75,3.776,3.776,0,0,0,.686-.07l2.285,4.9A6.548,6.548,0,0,0-5.625-8.437,6.559,6.559,0,0,0,.938-1.875,6.533,6.533,0,0,0,6-4.307l5.414,3.246A3.745,3.745,0,0,0,11.256,0a3.753,3.753,0,0,0,3.75,3.75,3.726,3.726,0,0,0,2.1-.639A3.792,3.792,0,0,0,18.117,2.1,3.768,3.768,0,0,0,18.75,0a3.726,3.726,0,0,0-.639-2.1A4.2,4.2,0,0,0,17.654-2.654ZM-5.625-20.625A1.881,1.881,0,0,1-7.5-22.5a1.881,1.881,0,0,1,1.875-1.875A1.881,1.881,0,0,1-3.75-22.5,1.881,1.881,0,0,1-5.625-20.625ZM.938-3.75A4.694,4.694,0,0,1-3.75-8.437,4.694,4.694,0,0,1,.938-13.125,4.694,4.694,0,0,1,5.625-8.437,4.694,4.694,0,0,1,.938-3.75ZM15,1.875A1.881,1.881,0,0,1,13.125,0a1.875,1.875,0,0,1,3.75,0A1.881,1.881,0,0,1,15,1.875Z" transform="translate(18.75 26.25)" fill="#0078c1" opacity="0.997"/>
      <path id="Path_87" data-name="Path 87" d="M11.344-14.367l-1.125-1.5L7.406-13.758l1.125,1.5ZM15-15a3.726,3.726,0,0,0,2.1-.639,3.791,3.791,0,0,0,1.014-1.014,3.726,3.726,0,0,0,.639-2.1,3.726,3.726,0,0,0-.639-2.1,3.782,3.782,0,0,0-.457-.557,3.782,3.782,0,0,0-.557-.457A3.726,3.726,0,0,0,15-22.5a3.726,3.726,0,0,0-2.1.639,3.791,3.791,0,0,0-1.014,1.014,3.726,3.726,0,0,0-.639,2.1A3.753,3.753,0,0,0,15-15Zm0-5.625a1.881,1.881,0,0,1,1.875,1.875A1.881,1.881,0,0,1,15-16.875a1.881,1.881,0,0,1-1.875-1.875A1.881,1.881,0,0,1,15-20.625Zm-27.9,9.076a3.726,3.726,0,0,0-2.1-.639,3.726,3.726,0,0,0-2.1.639,3.791,3.791,0,0,0-1.014,1.014,3.726,3.726,0,0,0-.639,2.1A3.753,3.753,0,0,0-15-4.687a3.753,3.753,0,0,0,3.75-3.75,3.726,3.726,0,0,0-.639-2.1A3.791,3.791,0,0,0-12.9-11.549ZM-15-6.562a1.881,1.881,0,0,1-1.875-1.875A1.881,1.881,0,0,1-15-10.312a1.881,1.881,0,0,1,1.875,1.875A1.881,1.881,0,0,1-15-6.562ZM-9.844-7.5h2.813V-9.375H-9.844Z" transform="translate(18.75 26.25)" fill="#e2071e" opacity="0.997"/>
    </g>
  </g>
</svg>
