<svg id="icon-file-word" xmlns="http://www.w3.org/2000/svg" width="24" height="32.006" viewBox="0 0 24 32.006">
  <path id="Path_59" data-name="Path 59" d="M5.65-13.406c-.425,2.05-2.031,8.731-2.088,9.394-.362-1.819-.044.1-2.612-9.431A.756.756,0,0,0,.225-14h-.4a.749.749,0,0,0-.725.556C-3.294-4.55-3.237-4.656-3.362-3.775c-.256-1.494.131-.181-2.15-9.65A.749.749,0,0,0-6.244-14h-.45a.747.747,0,0,0-.725.931c.594,2.375,2.156,8.587,2.638,10.5A.749.749,0,0,0-4.056-2h1.063a.756.756,0,0,0,.725-.556C-.131-10.537-.175-10.269.025-11.487c.406,1.944.012.438,2.294,8.931A.756.756,0,0,0,3.044-2h.875c.344,0,.856-.231.944-.562l2.675-10.5A.752.752,0,0,0,6.813-14H6.388A.756.756,0,0,0,5.65-13.406Z" transform="translate(12 28.006)" fill="#e2071e" opacity="0.997"/>
  <path id="Path_60" data-name="Path 60" d="M11.119-21.881,5.875-27.125a3,3,0,0,0-2.119-.881H-9A3.01,3.01,0,0,0-12-25V1A3,3,0,0,0-9,4H9a3,3,0,0,0,3-3V-19.756A3.015,3.015,0,0,0,11.119-21.881ZM9.706-20.463A.983.983,0,0,1,9.969-20H4v-5.969a.983.983,0,0,1,.463.263ZM9,2H-9a1,1,0,0,1-1-1V-25a1,1,0,0,1,1-1H2v6.5A1.5,1.5,0,0,0,3.5-18H10V1A1,1,0,0,1,9,2Z" transform="translate(12 28.006)" fill="#0065ab" opacity="0.997"/>
</svg>
