<svg xmlns="http://www.w3.org/2000/svg" width="31" height="31" viewBox="0 0 31 31">
  <path id="icon-nav-blue-arrow-left" d="M31.5-12A15.5,15.5,0,0,0,16-27.5,15.5,15.5,0,0,0,.5-12,15.5,15.5,0,0,0,16,3.5,15.5,15.5,0,0,0,31.5-12ZM16,1.5A13.5,13.5,0,0,1,2.5-12,13.5,13.5,0,0,1,16-25.5,13.5,13.5,0,0,1,29.5-12,13.5,13.5,0,0,1,16,1.5Zm-.781-5.781a.758.758,0,0,0,1.069,0l.431-.431a.753.753,0,0,0-.013-1.069l-5.35-5.156H23.25a.752.752,0,0,0,.75-.75v-.625a.752.752,0,0,0-.75-.75H11.356L16.7-18.219a.747.747,0,0,0,.013-1.069l-.431-.431a.751.751,0,0,0-1.062,0L8.025-12.531a.751.751,0,0,0,0,1.062Z" transform="translate(-0.5 27.5)" fill="#004691"/>
</svg>
