<svg xmlns="http://www.w3.org/2000/svg" width="48" height="48" viewBox="0 0 48 48">
  <g id="icon-nav-times" transform="translate(-1625 -244)">
    <rect id="Rectangle_78" data-name="Rectangle 78" width="48" height="48" transform="translate(1625 244)" fill="#fff" opacity="0"/>
    <path id="Path_93" data-name="Path 93" d="M0-27.5A15.5,15.5,0,0,0-15.5-12,15.5,15.5,0,0,0,0,3.5,15.5,15.5,0,0,0,15.5-12,15.5,15.5,0,0,0,0-27.5ZM0,.5A12.5,12.5,0,0,1-12.5-12,12.5,12.5,0,0,1,0-24.5,12.5,12.5,0,0,1,12.5-12,12.5,12.5,0,0,1,0,.5ZM6.362-15.887a.751.751,0,0,0,0-1.062L4.95-18.362a.751.751,0,0,0-1.062,0L0-14.475l-3.888-3.888a.751.751,0,0,0-1.062,0L-6.363-16.95a.751.751,0,0,0,0,1.062L-2.475-12-6.363-8.112a.751.751,0,0,0,0,1.062L-4.95-5.637a.751.751,0,0,0,1.062,0L0-9.525,3.887-5.637a.751.751,0,0,0,1.062,0L6.362-7.05a.751.751,0,0,0,0-1.062L2.475-12Z" transform="translate(1649 280)" fill="#004691"/>
  </g>
</svg>
