<svg xmlns="http://www.w3.org/2000/svg" width="44" height="44" viewBox="0 0 44 44">
  <g id="icon-doc-recenti" transform="translate(-368 -2741)">
    <rect id="Rectangle_80" data-name="Rectangle 80" width="44" height="44" transform="translate(368 2741)" fill="#fff" opacity="0.004"/>
    <path id="Path_1" data-name="Path 1" d="M100.941,249.865l-.686-4.226a.921.921,0,0,1,.78-1.069,2.156,2.156,0,0,1,.582.012l7.166.3a1.706,1.706,0,0,1,1.437,1.194c.392,1.138.858,2.184.858,2.184a1.006,1.006,0,0,0,.952.615c.727,0,15.059.561,15.059.561s1.008-.169,1.008,1.063-.989,20.919-.989,20.919-.019.61-.391.61" transform="translate(276.681 2504.79)" fill="#fff"/>
    <path id="Path_5" data-name="Path 5" d="M112.491,252.11l-14.564-1.144s-1.049-.175-.972.994S98.9,267.088,98.9,267.088l.051.422s.1,1.021,1.049,1,27.233,2.165,27.233,2.165a.616.616,0,0,0,.676-.707l-3.249-18.535a.644.644,0,0,1-.006-.12c.008-.171-.039-.7-.849-.842-.973-.174-7.858-.472-7.858-.472s-.461-.174-.768.7l-.5,1.119s-.174.439-.471.42c-.259-.016-1.718-.121-1.718-.121" transform="translate(275.86 2506.142)" fill="#fff"/>
    <g id="Group_203" data-name="Group 203" transform="translate(275.86 2504.79)">
      <g id="Component_12_7" data-name="Component 12 – 7" transform="translate(96.951 244.556)">
        <path id="Path_2" data-name="Path 2" d="M100.941,249.865l-.686-4.226a.921.921,0,0,1,.78-1.069,2.156,2.156,0,0,1,.582.012l7.166.3a1.706,1.706,0,0,1,1.437,1.194c.392,1.138.858,2.184.858,2.184a1.006,1.006,0,0,0,.952.615c.727,0,15.059.561,15.059.561s1.008-.169,1.008,1.063-.989,20.919-.989,20.919-.019.61-.391.61" transform="translate(-96.13 -244.556)" fill="#fff" stroke="#0065ab" stroke-linecap="round" stroke-linejoin="round" stroke-width="1.6"/>
        <path id="Path_3" data-name="Path 3" d="M126.729,261.877s.554-10.587.554-11.35-.554-.777-.554-.777l-1.279-.074s-25.375-1.172-26.224-1.191-.778.418-.778.418l.524,3.7" transform="translate(-96.587 -243.647)" fill="#e2071e"/>
        <path id="Path_77" data-name="Path 77" d="M98.693,252.47l15.513,1.129,1.549-2.31,8.741.656,3.36,19.818-28.769-2.179L97.066,252.47Z" transform="translate(-96.951 -244.556)" fill="#fff"/>
        <path id="Path_6" data-name="Path 6" d="M112.491,252.11l-14.564-1.144s-1.049-.175-.972.994S98.9,267.088,98.9,267.088l.051.422s.1,1.021,1.049,1,27.233,2.165,27.233,2.165a.616.616,0,0,0,.676-.707l-3.249-18.535a.644.644,0,0,1-.006-.12c.008-.171-.039-.7-.849-.842-.973-.174-7.858-.472-7.858-.472s-.461-.174-.768.7l-.5,1.119s-.174.439-.471.42C113.95,252.215,112.491,252.11,112.491,252.11Z" transform="translate(-96.951 -243.203)" fill="none" stroke="#0065ab" stroke-linecap="round" stroke-linejoin="round" stroke-width="1.6"/>
      </g>
    </g>
  </g>
</svg>
