<svg id="icon-file-audio" xmlns="http://www.w3.org/2000/svg" width="24" height="32.006" viewBox="0 0 24 32.006">
  <path id="Path_67" data-name="Path 67" d="M4.15-2.162A8.726,8.726,0,0,0,8-9.394a8.675,8.675,0,0,0-1.181-4.381,8.787,8.787,0,0,0-3.1-3.125.944.944,0,0,0-1.287.325.944.944,0,0,0,.325,1.288A6.891,6.891,0,0,1,6.112-9.394,6.859,6.859,0,0,1,3.094-3.713a.93.93,0,0,0-.25,1.3A.931.931,0,0,0,3.619-2,.89.89,0,0,0,4.15-2.162ZM2.487-4.556A5.8,5.8,0,0,0,5.081-9.394a5.831,5.831,0,0,0-2.888-5.019.938.938,0,0,0-1.281.337.938.938,0,0,0,.338,1.281A3.937,3.937,0,0,1,3.206-9.4,3.925,3.925,0,0,1,1.45-6.125a.937.937,0,0,0-.263,1.3.933.933,0,0,0,.781.419A.892.892,0,0,0,2.487-4.556ZM.8-6.944a2.859,2.859,0,0,0,1.362-2.45A2.885,2.885,0,0,0,.65-11.931a.937.937,0,0,0-1.269.381.937.937,0,0,0,.381,1.269,1.013,1.013,0,0,1,.531.888,1.007,1.007,0,0,1-.475.856.94.94,0,0,0-.3,1.294.929.929,0,0,0,.8.444A.894.894,0,0,0,.8-6.944Zm-4.175-4.388v4.669L-5-7.875H-6.125v-2.25H-5ZM-2.256-14.5a.744.744,0,0,0-.525.219L-5.5-12H-7.25a.752.752,0,0,0-.75.75v4.5A.752.752,0,0,0-7.25-6H-5.5l2.719,2.281a.733.733,0,0,0,.525.219A.749.749,0,0,0-1.5-4.25v-9.5A.749.749,0,0,0-2.256-14.5Z" transform="translate(12 28.006)" fill="#e2071e" opacity="0.997"/>
  <path id="Path_68" data-name="Path 68" d="M11.119-21.881,5.875-27.125a3,3,0,0,0-2.119-.881H-9A3.01,3.01,0,0,0-12-25V1A3,3,0,0,0-9,4H9a3,3,0,0,0,3-3V-19.756A3.015,3.015,0,0,0,11.119-21.881ZM9.706-20.463A.983.983,0,0,1,9.969-20H4v-5.969a.983.983,0,0,1,.463.263ZM9,2H-9a1,1,0,0,1-1-1V-25a1,1,0,0,1,1-1H2v6.5A1.5,1.5,0,0,0,3.5-18H10V1A1,1,0,0,1,9,2Z" transform="translate(12 28.006)" fill="#0065ab" opacity="0.997"/>
</svg>
