<svg id="icon-link-folder" xmlns="http://www.w3.org/2000/svg" width="40" height="32" viewBox="0 0 40 32">
  <g id="Livello_1" data-name="Livello 1">
    <path id="Path_80" data-name="Path 80" d="M30.214,34.114V39.15a1.007,1.007,0,0,1-1.007,1.007H3.021A1.007,1.007,0,0,1,2.014,39.15V21.021a1.007,1.007,0,0,1,1.007-1.007H8.057V18H3.021A3.021,3.021,0,0,0,0,21.021V39.15a3.021,3.021,0,0,0,3.021,3.021H29.207a3.021,3.021,0,0,0,3.021-3.021V34.114Z" transform="translate(0 -10.171)" fill="#e2071e"/>
    <path id="Path_81" data-name="Path 81" d="M47.207,4.029H35.121L31.684.591A2.01,2.01,0,0,0,30.26,0H21.021A3.021,3.021,0,0,0,18,3.021V21.15a3.021,3.021,0,0,0,3.021,3.021H47.207a3.021,3.021,0,0,0,3.021-3.021V7.05a3.021,3.021,0,0,0-3.021-3.021ZM48.214,21.15a1.007,1.007,0,0,1-1.007,1.007H21.021a1.007,1.007,0,0,1-1.007-1.007V3.021a1.007,1.007,0,0,1,1.007-1.007H30.26L33.7,5.452a2,2,0,0,0,1.423.591H47.207A1.007,1.007,0,0,1,48.214,7.05Z" transform="translate(-10.229 0)" fill="#0065ab"/>
  </g>
</svg>
