<svg xmlns="http://www.w3.org/2000/svg" width="36" height="32" viewBox="0 0 36 32">
  <g id="icon-link-edit" transform="translate(5 -12)">
    <g id="Component_14_8" data-name="Component 14 – 8" transform="translate(-5 12)">
      <path id="Path_84" data-name="Path 84" d="M17.231-20.231a2.625,2.625,0,0,0,0-3.712l-3.288-3.288a2.625,2.625,0,0,0-3.712,0L-9.3-7.7l-.694,6.244a1.311,1.311,0,0,0,1.45,1.45L-2.3-.7Zm-5.85,3.025L-3.213-2.606l-4.694.519.519-4.694,14.6-14.594Zm4.438-5.325a.622.622,0,0,1,0,.881l-3.025,3.025L8.625-22.794l3.025-3.025a.622.622,0,0,1,.881,0Z" transform="translate(18 28)" fill="#e2071e" opacity="0.997"/>
      <path id="Path_85" data-name="Path 85" d="M8.112-8.281A.35.35,0,0,0,8-8.019V1A1,1,0,0,1,7,2H-15a1,1,0,0,1-1-1V-21a1,1,0,0,1,1-1H2.019a.386.386,0,0,0,.263-.112l1.25-1.25A.373.373,0,0,0,3.269-24H-15a3,3,0,0,0-3,3V1a3,3,0,0,0,3,3H7a3,3,0,0,0,3-3V-9.269a.373.373,0,0,0-.638-.263Z" transform="translate(18 28)" fill="#0078c1" opacity="0.997"/>
    </g>
  </g>
</svg>
