<svg xmlns="http://www.w3.org/2000/svg" width="31" height="31" viewBox="0 0 31 31">
  <path id="icon-nav-solid-arrow-right" d="M16-27.5A15.5,15.5,0,0,1,31.5-12,15.5,15.5,0,0,1,16,3.5,15.5,15.5,0,0,1,.5-12,15.5,15.5,0,0,1,16-27.5Zm1.806,8.975a1.5,1.5,0,0,0,.025-2.144l-.687-.681a1.494,1.494,0,0,0-2.119,0L6.731-13.056a1.494,1.494,0,0,0,0,2.119L15.025-2.65a1.494,1.494,0,0,0,2.119,0l.687-.681a1.5,1.5,0,0,0-.025-2.144L13.087-10H24.5A1.5,1.5,0,0,0,26-11.5v-1A1.5,1.5,0,0,0,24.5-14H13.087Z" transform="translate(31.5 3.5) rotate(180)" fill="#004691" opacity="0.75"/>
</svg>
