<svg id="icon-file-video" xmlns="http://www.w3.org/2000/svg" width="24" height="32" viewBox="0 0 24 32">
  <path id="Path_71" data-name="Path 71" d="M2-10.463A1.537,1.537,0,0,0,.463-12H-6.463A1.537,1.537,0,0,0-8-10.463v6.926A1.537,1.537,0,0,0-6.463-2H.463A1.537,1.537,0,0,0,2-3.537v-.65L3.748-2.439A1.723,1.723,0,0,0,4.809-2H6.5A1.5,1.5,0,0,0,8-3.5v-7A1.5,1.5,0,0,0,6.5-12H4.809a1.723,1.723,0,0,0-1.061.439L2-9.812ZM0-4H-6v-6H0Zm5.016-6H6v6H5.016L2-6.573v-.853Z" transform="translate(12 28)" fill="#e2071e" opacity="0.997"/>
  <path id="Path_72" data-name="Path 72" d="M11.121-21.879,5.879-27.121A3.446,3.446,0,0,0,3.757-28H-9a3,3,0,0,0-3,3V1A3,3,0,0,0-9,4H9a3,3,0,0,0,3-3V-19.757A3.446,3.446,0,0,0,11.121-21.879ZM4-25.969a1.171,1.171,0,0,1,.464.262l5.243,5.243A1.17,1.17,0,0,1,9.969-20H4ZM10,1A1,1,0,0,1,9,2H-9a1,1,0,0,1-1-1V-25a1,1,0,0,1,1-1H2v6.5A1.5,1.5,0,0,0,3.5-18H10Z" transform="translate(12 28)" fill="#0065ab" opacity="0.997"/>
</svg>
