<svg id="icon-file-excel" xmlns="http://www.w3.org/2000/svg" width="24" height="32.006" viewBox="0 0 24 32.006">
  <path id="Path_61" data-name="Path 61" d="M1.231-8.75l3.156-5.112A.75.75,0,0,0,3.744-15H3.487a.753.753,0,0,0-.631.344C.919-11.625.581-11.312,0-10a42.732,42.732,0,0,0-2.862-4.656A.753.753,0,0,0-3.494-15H-3.75a.747.747,0,0,0-.638,1.138l3.2,5.112L-4.881-3.156A.751.751,0,0,0-4.25-2h.219A.753.753,0,0,0-3.4-2.344C-1.075-5.969-.569-6.25,0-7.5A36.959,36.959,0,0,0,3.4-2.338.744.744,0,0,0,4.025-2H4.25a.746.746,0,0,0,.631-1.15Z" transform="translate(12 28.006)" fill="#e2071e" opacity="0.997"/>
  <path id="Path_62" data-name="Path 62" d="M11.119-21.881,5.875-27.125a3,3,0,0,0-2.119-.881H-9A3.01,3.01,0,0,0-12-25V1A3,3,0,0,0-9,4H9a3,3,0,0,0,3-3V-19.756A3.015,3.015,0,0,0,11.119-21.881ZM9.706-20.463A.983.983,0,0,1,9.969-20H4v-5.969a.983.983,0,0,1,.463.263ZM9,2H-9a1,1,0,0,1-1-1V-25a1,1,0,0,1,1-1H2v6.5A1.5,1.5,0,0,0,3.5-18H10V1A1,1,0,0,1,9,2Z" transform="translate(12 28.006)" fill="#0065ab" opacity="0.997"/>
</svg>
