<svg id="icon-file-csv" xmlns="http://www.w3.org/2000/svg" width="24" height="32" viewBox="0 0 24 32">
  <path id="Path_65" data-name="Path 65" d="M-4.5-12H-5A3,3,0,0,0-8-9v2A3,3,0,0,0-5-4h.5A.5.5,0,0,0-4-4.5v-1A.5.5,0,0,0-4.5-6H-5A1,1,0,0,1-6-7V-9a1,1,0,0,1,1-1h.5a.5.5,0,0,0,.5-.5v-1A.5.5,0,0,0-4.5-12Zm7,0a.5.5,0,0,0-.5.5v1.3A8.6,8.6,0,0,0,4.268-4.319,1,1,0,0,0,5-4a1,1,0,0,0,.732-.319A8.593,8.593,0,0,0,8-10.2v-1.3a.5.5,0,0,0-.5-.5h-1a.5.5,0,0,0-.5.5v1.3A6.813,6.813,0,0,1,5-6.645,6.811,6.811,0,0,1,4-10.2v-1.3a.5.5,0,0,0-.5-.5ZM-.784-9.346a.331.331,0,0,1-.133-.24c0-.2.278-.414.651-.414H.5a.5.5,0,0,0,.5-.5v-1A.5.5,0,0,0,.5-12H-.267A2.543,2.543,0,0,0-2.917-9.586a2.319,2.319,0,0,0,.833,1.759L-.716-6.654a.331.331,0,0,1,.133.24c0,.2-.278.414-.651.414H-2a.5.5,0,0,0-.5.5v1A.5.5,0,0,0-2-4h.767A2.543,2.543,0,0,0,1.417-6.414,2.319,2.319,0,0,0,.584-8.172Z" transform="translate(12 28)" fill="#e2071e" opacity="0.997"/>
  <path id="Path_66" data-name="Path 66" d="M11.119-21.876,5.876-27.119A3,3,0,0,0,3.758-28H-9a3.01,3.01,0,0,0-3,3.006V1A3,3,0,0,0-9,4H9a3,3,0,0,0,3-3V-19.752A3.014,3.014,0,0,0,11.119-21.876ZM4-25.963a.983.983,0,0,1,.462.263l5.242,5.242A.983.983,0,0,1,9.969-20H4ZM10,1A1,1,0,0,1,9,2H-9a1,1,0,0,1-1-1V-24.994A1.008,1.008,0,0,1-9-26H2v6.5A1.493,1.493,0,0,0,3.5-18H10Z" transform="translate(12 28)" fill="#0065ab" opacity="0.997"/>
</svg>
