<svg xmlns="http://www.w3.org/2000/svg" width="17.437" height="17.438" viewBox="0 0 17.437 17.438">
  <path id="Path_94" data-name="Path 94" d="M8.719-7.25A8.717,8.717,0,0,1,0,1.469,8.717,8.717,0,0,1-8.719-7.25,8.717,8.717,0,0,1,0-15.969,8.717,8.717,0,0,1,8.719-7.25ZM0-14.844A7.593,7.593,0,0,0-7.594-7.25,7.593,7.593,0,0,0,0,.344,7.593,7.593,0,0,0,7.594-7.25,7.593,7.593,0,0,0,0-14.844Zm-.439,3.252a.426.426,0,0,1,.6,0l.243.243a.423.423,0,0,1-.007.6l-3.009,2.9h6.69a.423.423,0,0,1,.422.422v.352a.423.423,0,0,1-.422.422h-6.69l3.006,2.9a.42.42,0,0,1,.007.6l-.243.243a.422.422,0,0,1-.6,0L-4.486-6.951a.422.422,0,0,1,0-.6Z" transform="translate(1.469 8.719) rotate(90)" fill="#004691" opacity="0.75"/>
</svg>
