<svg id="icon-file-archive" xmlns="http://www.w3.org/2000/svg" width="24" height="32.006" viewBox="0 0 24 32.006">
  <path id="Path_69" data-name="Path 69" d="M-4-22v2h2v-2ZM.119-11.4A.745.745,0,0,0-.619-12H-2v-2H-4v2L-5.213-5.925A3.279,3.279,0,0,0-2-2,3.279,3.279,0,0,0,1.213-5.925Zm-2.1,7.781A1.88,1.88,0,0,1-4.006-5.306,1.88,1.88,0,0,1-1.981-6.994,1.88,1.88,0,0,1,.044-5.306,1.88,1.88,0,0,1-1.981-3.619ZM-4-18v2h2v-2Zm4-6H-2v2H0Zm-4.019-2v2h2v-2C-1.36-26.205-9.55-26-4.019-26ZM0-16H-2v2H0Zm0-4H-2v2H0Z" transform="translate(12 28.006)" fill="#e2071e" opacity="0.997"/>
  <path id="Path_70" data-name="Path 70" d="M11.119-21.881,5.875-27.125a3,3,0,0,0-2.119-.881H-9A3.01,3.01,0,0,0-12-25V1A3,3,0,0,0-9,4H9a3,3,0,0,0,3-3V-19.756A3.015,3.015,0,0,0,11.119-21.881ZM4-25.969a.954.954,0,0,1,.463.263l5.244,5.244A1.007,1.007,0,0,1,9.969-20H4ZM10,1A1,1,0,0,1,9,2H-9a1,1,0,0,1-1-1V-25a1,1,0,0,1,1-1H2v6.5A1.5,1.5,0,0,0,3.5-18H10Z" transform="translate(12 28.006)" fill="#0065ab" opacity="0.997"/>
</svg>
