<svg xmlns="http://www.w3.org/2000/svg" width="24" height="32.006" viewBox="0 0 24 32.006">
  <g id="icon-file-pdf" transform="translate(-379 -2812.08)">
    <path id="Path_58" data-name="Path 58" d="M7.625-8.7c-.844-.831-3.437-.575-4.606-.419A6.542,6.542,0,0,1,.2-12.656c.269-1.125.75-2.95.4-4.056a1.462,1.462,0,0,0-2.787-.425c-.312,1.144-.019,2.775.525,4.862A60.17,60.17,0,0,1-4.294-6.737c-1.3.669-3.381,1.831-3.675,3.275-.219,1.05,1.431,2.463,3.319.4A16.722,16.722,0,0,0-2.694-5.906a36.334,36.334,0,0,1,5.125-1.5A9.535,9.535,0,0,0,6.469-6.162,1.515,1.515,0,0,0,7.625-8.7ZM-6.7-3.138a8.731,8.731,0,0,1,2.219-2.55C-5.862-3.481-6.7-3.094-6.7-3.138ZM-.75-17.031c.544,0,.487,2.344.131,2.975A6.073,6.073,0,0,1-.75-17.031ZM-2.525-7.075a29.316,29.316,0,0,0,1.8-3.981A8.141,8.141,0,0,0,1.469-8.463,22.85,22.85,0,0,0-2.525-7.075Zm9.588-.369s-.362.438-2.719-.569C6.906-8.2,7.325-7.612,7.063-7.444Z" transform="translate(391 2839.086)" fill="#e2071e" opacity="0.997"/>
    <path id="Path_57" data-name="Path 57" d="M11.119-21.881,5.875-27.125a3,3,0,0,0-2.119-.881H-9A3.01,3.01,0,0,0-12-25V1A3,3,0,0,0-9,4H9a3,3,0,0,0,3-3V-19.756A3.015,3.015,0,0,0,11.119-21.881ZM9.706-20.463A.983.983,0,0,1,9.969-20H4v-5.969a.983.983,0,0,1,.463.263ZM9,2H-9a1,1,0,0,1-1-1V-25a1,1,0,0,1,1-1H2v6.5A1.5,1.5,0,0,0,3.5-18H10V1A1,1,0,0,1,9,2Z" transform="translate(391 2840.086)" fill="#0065ab" opacity="0.997"/>
  </g>
</svg>
