<svg id="icon-file-image" xmlns="http://www.w3.org/2000/svg" width="24" height="32.006" viewBox="0 0 24 32.006">
  <path id="Path_75" data-name="Path 75" d="M-2.062-7-4.531-9.469a.751.751,0,0,0-1.062,0L-8.031-7.031-8.062,0h16V-9L4.469-12.469a.751.751,0,0,0-1.062,0Zm6-3.169,2,2V-2H-6.056l.019-4.2.975-.975,3,3C-.794-5.444,2.794-9.025,3.938-10.169Zm-8-1.831a4,4,0,0,0,4-4,4,4,0,0,0-4-4,4,4,0,0,0-4,4A4,4,0,0,0-4.062-12Zm0-6a2.006,2.006,0,0,1,2,2,2.006,2.006,0,0,1-2,2,2.006,2.006,0,0,1-2-2A2.006,2.006,0,0,1-4.062-18Z" transform="translate(12 28.006)" fill="#e2071e" opacity="0.997"/>
  <path id="Path_76" data-name="Path 76" d="M11.119-21.881,5.875-27.125a3,3,0,0,0-2.119-.881H-9A3.01,3.01,0,0,0-12-25V1A3,3,0,0,0-9,4H9a3,3,0,0,0,3-3V-19.756A3.015,3.015,0,0,0,11.119-21.881ZM4-25.969a.983.983,0,0,1,.463.263l5.244,5.244A.983.983,0,0,1,9.969-20H4ZM10,1A1,1,0,0,1,9,2H-9a1,1,0,0,1-1-1V-25a1,1,0,0,1,1-1H2v6.5A1.5,1.5,0,0,0,3.5-18H10Z" transform="translate(12 28.006)" fill="#0065ab" opacity="0.997"/>
</svg>
