<svg xmlns="http://www.w3.org/2000/svg" width="31" height="31" viewBox="0 0 31 31">
  <path id="icon-nav-solid-arrow-left" d="M16,3.5A15.5,15.5,0,0,0,31.5-12,15.5,15.5,0,0,0,16-27.5,15.5,15.5,0,0,0,.5-12,15.5,15.5,0,0,0,16,3.5Zm1.806-8.975a1.5,1.5,0,0,1,.025,2.144l-.687.681a1.494,1.494,0,0,1-2.119,0L6.731-10.944a1.494,1.494,0,0,1,0-2.119l8.294-8.287a1.494,1.494,0,0,1,2.119,0l.687.681a1.5,1.5,0,0,1-.025,2.144L13.087-14H24.5A1.5,1.5,0,0,1,26-12.5v1A1.5,1.5,0,0,1,24.5-10H13.087Z" transform="translate(-0.5 27.5)" fill="#004691" opacity="0.75"/>
</svg>
