<svg xmlns="http://www.w3.org/2000/svg" width="44" height="44" viewBox="0 0 44 44">
  <g id="icon-doc-visti" transform="translate(-416 -2610)">
    <rect id="Rectangle_79" data-name="Rectangle 79" width="44" height="44" transform="translate(416 2610)" fill="#fff" opacity="0.004"/>
    <g id="icon-doc-visti-2" data-name="icon-doc-visti" transform="translate(418 2613)">
      <path id="Path_7" data-name="Path 7" d="M118.007,209.281l-11.12-1.615a.872.872,0,0,1-.655-.474l-4.971-10.076a1.7,1.7,0,0,0-3.053,0l-4.973,10.076a.867.867,0,0,1-.654.474l-11.121,1.615a1.705,1.705,0,0,0-.943,2.905l8.046,7.841a.868.868,0,0,1,.25.77l-1.9,11.072a1.689,1.689,0,0,0,.675,1.665,1.73,1.73,0,0,0,1.792.132l9.948-5.229a.877.877,0,0,1,.808,0l9.946,5.228a1.726,1.726,0,0,0,1.793-.131,1.689,1.689,0,0,0,.675-1.665l-1.9-11.072a.868.868,0,0,1,.249-.77l8.044-7.841a1.7,1.7,0,0,0-.942-2.905Z" transform="translate(-80.004 -196.166)" fill="none" stroke="#0065ab" stroke-linecap="round" stroke-linejoin="round" stroke-width="2"/>
      <path id="Path_8" data-name="Path 8" d="M98.638,201.079l-4.294,8.7-9.6,1.4,6.95,6.772-.754,4.392a.62.62,0,0,0-.028.147.346.346,0,0,0,.346.346.342.342,0,0,0,.337-.288l.1-.592h0l.727-4.245-6.213-6.055,8.586-1.246,3.841-7.781,3.84,7.781,2.623.378h.009a.342.342,0,0,0,.042-.682l-2.219-.321Z" transform="translate(-78.907 -195.028)" fill="#d9000d"/>
      <path id="Path_9" data-name="Path 9" d="M98.638,201.079l-4.294,8.7-9.6,1.4,6.95,6.772-.754,4.392a.62.62,0,0,0-.028.147.346.346,0,0,0,.346.346.342.342,0,0,0,.337-.288l.1-.592h0l.727-4.245-6.213-6.055,8.586-1.246,3.841-7.781,3.84,7.781,2.623.378h.009a.342.342,0,0,0,.042-.682l-2.219-.321Z" transform="translate(-78.907 -195.028)" fill="none" stroke="#d9000d" stroke-miterlimit="10" stroke-width="0.153"/>
      <path id="Path_10" data-name="Path 10" d="M108.405,209.6l1.639.239-6.213,6.055,1.468,8.552-7.68-4.037L89.4,224.732a.368.368,0,0,0-.259.337.341.341,0,0,0,.506.3l7.975-4.191,8.586,4.512-1.64-9.563,6.95-6.772-2.948-.429a.647.647,0,0,0-.115-.017.344.344,0,0,0-.047.685" transform="translate(-77.889 -193.214)" fill="#d9000d"/>
      <path id="Path_11" data-name="Path 11" d="M108.405,209.6l1.639.239-6.213,6.055,1.468,8.552-7.68-4.036L89.4,224.732a.368.368,0,0,0-.259.337.341.341,0,0,0,.506.3l7.975-4.191,8.586,4.512-1.64-9.563,6.95-6.772-2.948-.429a.647.647,0,0,0-.115-.017.344.344,0,0,0-.047.685Z" transform="translate(-77.889 -193.214)" fill="none" stroke="#d9000d" stroke-miterlimit="10" stroke-width="0.153"/>
    </g>
  </g>
</svg>
