<svg xmlns="http://www.w3.org/2000/svg" width="155.845" height="41.127" viewBox="0 0 155.845 41.127">
  <g id="Group_33" data-name="Group 33" transform="translate(-60 -16)">
    <path id="Path_107" data-name="Path 107" d="M106.967,0c.853,0,1.009.078,1.009,3.009v2.7c0,2.777-.234,3.087-1.009,3.087H97.581V40.123c0,.695-.853.848-4.035.848h-1.63c-3.18,0-3.723-.154-3.723-.848V8.8H78.809c-.775,0-1.009-.232-1.009-3.087v-2.7C77.878,0,78.034,0,78.882,0ZM123.8.848c0-.617-.853-.848-3.879-.848h-1.784c-3.18,0-3.723.31-3.723.848V40.123c0,.695.543.848,3.723.848h1.784c3.03,0,3.879-.154,3.879-.848ZM169.41,0H166.7c-3.491,0-3.723.385-4.035,1l-5.424,13.041c-1.784,4.329-3.723,8.95-4.422,11.42a102.114,102.114,0,0,0-4.422-11.574L142.951,1.082c-.31-.771-1.706-1-4.654-1h-3.1c-3.03,0-3.645.31-3.645.848V40.2c0,.695.621.848,3.723.848h1.706c3.1,0,3.957-.154,3.957-.848V16.9h.234s.31,1.082.7,2.082l6.277,14.582c.31.695.621.926,3.491.926h1.861c2.948,0,3.18-.232,3.491-.926l5.74-14.043c.543-1.312.931-2.623.931-2.623h.234V40.2c0,.695.621.848,3.879.848h1.63c3.03,0,3.879-.154,3.879-.848V.926C173.367.31,172.436,0,169.41,0Z" transform="translate(42.551 16.001)" fill="#fff"/>
    <path id="Path_108" data-name="Path 108" d="M47.085,8.8H2.483A2.413,2.413,0,0,1,.778,8.1a2.262,2.262,0,0,1-.7-1.7V2.392A2.381,2.381,0,0,1,.775.7,2.424,2.424,0,0,1,2.405,0h44.6A2.288,2.288,0,0,1,48.715.7a2.6,2.6,0,0,1,.7,1.7V6.481a2.381,2.381,0,0,1-.7,1.7,2.79,2.79,0,0,1-1.63.619Zm-27.3,7.329H2.405A2.413,2.413,0,0,0,.7,16.821a2.262,2.262,0,0,0-.7,1.7v4.089a2.381,2.381,0,0,0,.7,1.7A2.288,2.288,0,0,0,2.405,25H19.782Zm28.933.695a2.288,2.288,0,0,0-1.706-.695H29.632v8.8H47.009a2.413,2.413,0,0,0,1.706-.695,2.6,2.6,0,0,0,.7-1.7V18.518A2.262,2.262,0,0,0,48.715,16.821Zm0,16.125a2.288,2.288,0,0,0-1.706-.695H29.632v8.8H47.009a2.413,2.413,0,0,0,1.706-.695,2.6,2.6,0,0,0,.7-1.7V34.567a2.214,2.214,0,0,0-.7-1.621Zm-28.933-.695H2.405A2.413,2.413,0,0,0,.7,32.946a2.262,2.262,0,0,0-.7,1.7v4.089a2.381,2.381,0,0,0,.7,1.7,2.288,2.288,0,0,0,1.706.695H19.782Z" transform="translate(60 16)" fill="#e2071e"/>
  </g>
</svg>
