<svg xmlns="http://www.w3.org/2000/svg" xmlns:xlink="http://www.w3.org/1999/xlink" width="204.394" height="45.534" viewBox="0 0 204.394 45.534">
  <defs>
    <clipPath id="clip-path">
      <rect id="Rectangle_69" data-name="Rectangle 69" width="204.394" height="45.534" transform="translate(0 0)" fill="#fff"/>
    </clipPath>
  </defs>
  <g id="Group_54" data-name="Group 54" transform="translate(0 0)">
    <g id="Group_53" data-name="Group 53" transform="translate(0 0)" clip-path="url(#clip-path)">
      <path id="Path_30" data-name="Path 30" d="M26.619,0A13.667,13.667,0,0,0,16.592,5.994L2.4,24.284A13.253,13.253,0,0,0,.136,30.621s14.24,0,14.206-.015l12.322-15.89c0-.075,0-14.665,0-14.665" transform="translate(-0.053 0)" fill="#fff"/>
      <path id="Path_31" data-name="Path 31" d="M.418,55.343A13.416,13.416,0,0,1,0,52.015H24.211v3.319Z" transform="translate(0 -20.112)" fill="#fff"/>
      <path id="Path_32" data-name="Path 32" d="M1.349,59.546A13.415,13.415,0,0,0,3.14,62.869l21.592.035V59.546Z" transform="translate(-0.522 -23.024)" fill="#fff"/>
      <path id="Path_33" data-name="Path 33" d="M26.582,67.161H6.134a13.309,13.309,0,0,0,9.587,4.059H26.582Z" transform="translate(-2.372 -25.968)" fill="#fff"/>
      <path id="Path_34" data-name="Path 34" d="M47.275.051s0,14.59,0,14.665L59.6,30.606c-.036.015,14.2.015,14.2.015a13.241,13.241,0,0,0-2.262-6.338L57.351,5.994A13.665,13.665,0,0,0,47.323,0" transform="translate(-18.279 0)" fill="#fff"/>
      <path id="Path_35" data-name="Path 35" d="M74.912,55.343a13.416,13.416,0,0,0,.417-3.328H51.118v3.319Z" transform="translate(-19.765 -20.112)" fill="#fff"/>
      <path id="Path_36" data-name="Path 36" d="M74.5,59.546a13.459,13.459,0,0,1-1.792,3.323L51.118,62.9V59.546Z" transform="translate(-19.765 -23.024)" fill="#fff"/>
      <path id="Path_37" data-name="Path 37" d="M51.117,67.161h20.45a13.311,13.311,0,0,1-9.588,4.059H51.117Z" transform="translate(-19.764 -25.968)" fill="#fff"/>
      <path id="Path_38" data-name="Path 38" d="M101.759,65.355V52.163h10.758V55.24h-6.432v1.887h5.442v3.078h-5.442v2.071h6.687v3.079Z" transform="translate(-39.345 -20.169)" fill="#fff"/>
      <path id="Path_39" data-name="Path 39" d="M131.878,59.363l-.164-3v-4.2h4.141V65.355h-4.05L127.1,58.173l.164,3v4.179H123.12V52.164h4.05Z" transform="translate(-47.604 -20.169)" fill="#fff"/>
      <path id="Path_40" data-name="Path 40" d="M160.43,65.173h-2.785l-.164-1.3a4.882,4.882,0,0,1-3.977,1.614c-3.372,0-6.4-2.181-6.4-6.781,0-4.214,2.639-7.109,6.909-7.109,3.17,0,5.718,1.649,6.249,4.893h-4.1a2.155,2.155,0,0,0-2.218-1.668c-1.7,0-2.51,1.539-2.51,3.867,0,1.868.587,3.573,2.766,3.573a2.347,2.347,0,0,0,2.218-1.522h-1.906V57.879h5.919Z" transform="translate(-56.879 -19.949)" fill="#fff"/>
      <rect id="Rectangle_65" data-name="Rectangle 65" width="4.324" height="13.192" transform="translate(106.171 31.994)" fill="#fff"/>
      <path id="Path_41" data-name="Path 41" d="M193.271,59.363l-.164-3v-4.2h4.141V65.355H193.2l-4.71-7.182.166,3v4.179h-4.141V52.164h4.05Z" transform="translate(-71.342 -20.169)" fill="#fff"/>
      <path id="Path_42" data-name="Path 42" d="M209.607,65.355V52.163h10.755V55.24h-6.432v1.887h5.443v3.078h-5.443v2.071h6.689v3.079Z" transform="translate(-81.045 -20.169)" fill="#fff"/>
      <path id="Path_43" data-name="Path 43" d="M231.175,65.355V52.163h10.756V55.24H235.5v1.887h5.443v3.078H235.5v2.071h6.689v3.079Z" transform="translate(-89.384 -20.169)" fill="#fff"/>
      <path id="Path_44" data-name="Path 44" d="M256.621,60.757v4.6H252.3V52.163h6.229c4.4,0,5.846,1.191,5.846,3.756a3.054,3.054,0,0,1-2.217,3.224c1.392.514,2.235.843,2.235,3.5,0,1.722-.055,2.31.458,2.31v.4h-4.38a8.662,8.662,0,0,1-.22-2.309c0-1.722-.293-2.289-2.309-2.289Zm0-2.9h1.7c1.337,0,2.051-.329,2.051-1.245,0-.935-.732-1.375-1.739-1.375h-2.016Z" transform="translate(-97.55 -20.169)" fill="#fff"/>
      <rect id="Rectangle_66" data-name="Rectangle 66" width="4.324" height="13.192" transform="translate(169.278 31.994)" fill="#fff"/>
      <path id="Path_45" data-name="Path 45" d="M296.158,59.363l-.164-3v-4.2h4.141V65.355h-4.05l-4.708-7.182.164,3v4.179H287.4V52.164h4.05Z" transform="translate(-111.123 -20.169)" fill="#fff"/>
      <path id="Path_46" data-name="Path 46" d="M324.709,65.173h-2.785l-.164-1.3a4.88,4.88,0,0,1-3.977,1.614c-3.372,0-6.4-2.181-6.4-6.781,0-4.214,2.639-7.109,6.909-7.109,3.17,0,5.718,1.649,6.249,4.893h-4.1a2.155,2.155,0,0,0-2.218-1.668c-1.7,0-2.51,1.539-2.51,3.867,0,1.868.587,3.573,2.766,3.573a2.347,2.347,0,0,0,2.218-1.522H318.79V57.879h5.919Z" transform="translate(-120.398 -19.949)" fill="#fff"/>
      <rect id="Rectangle_67" data-name="Rectangle 67" width="1.23" height="13.02" transform="translate(84.245 14.574)" fill="#fff"/>
      <path id="Path_47" data-name="Path 47" d="M147.51,25.425h-.036V36.782h-1.229V23.762h1.392l7.523,11.375h.036V23.762h1.23v13.02H155Z" transform="translate(-56.546 -9.188)" fill="#fff"/>
      <path id="Path_48" data-name="Path 48" d="M167.437,23.762h9.476V24.81H172.79V36.782h-1.23V24.81h-4.123Z" transform="translate(-64.74 -9.188)" fill="#fff"/>
      <path id="Path_49" data-name="Path 49" d="M187.495,36.782V23.761h8.662V24.81h-7.433v4.7h6.709v1.049h-6.709v5.172h7.613v1.049Z" transform="translate(-72.495 -9.188)" fill="#fff"/>
      <path id="Path_50" data-name="Path 50" d="M208.1,30.868v5.914l-1.23-.018v-13h5.1a5.673,5.673,0,0,1,3.291.8,2.975,2.975,0,0,1,1.14,2.613,3.4,3.4,0,0,1-.5,1.953,3.8,3.8,0,0,1-1.619,1.23,2.024,2.024,0,0,1,.9.578,2.579,2.579,0,0,1,.489.868,4.423,4.423,0,0,1,.207,1.031q.045.542.063,1.049.018.741.064,1.229a7.477,7.477,0,0,0,.109.8,1.854,1.854,0,0,0,.153.479.734.734,0,0,0,.217.263v.108l-1.356.018a2.375,2.375,0,0,1-.28-.9q-.082-.579-.126-1.212t-.073-1.23a7.05,7.05,0,0,0-.1-.976,2.033,2.033,0,0,0-.353-.841,1.609,1.609,0,0,0-.588-.479,2.547,2.547,0,0,0-.769-.217,6.921,6.921,0,0,0-.877-.055Zm3.833-1.048a5.3,5.3,0,0,0,1.275-.145,2.908,2.908,0,0,0,1.022-.461,2.286,2.286,0,0,0,.687-.8,2.529,2.529,0,0,0,.253-1.176,2.427,2.427,0,0,0-.263-1.193,1.981,1.981,0,0,0-.705-.742,2.982,2.982,0,0,0-1.013-.38,6.314,6.314,0,0,0-1.184-.109H208.1v5.01Z" transform="translate(-79.987 -9.188)" fill="#fff"/>
      <path id="Path_51" data-name="Path 51" d="M226.8,36.782l5.118-13.02h1.392l4.991,13.02h-1.266l-1.5-4.087H229.6l-1.537,4.087Zm3.219-5.136h5.1l-2.549-6.836Z" transform="translate(-87.693 -9.188)" fill="#fff"/>
      <path id="Path_52" data-name="Path 52" d="M258.189,27.324a3.722,3.722,0,0,0-1.411-2.368,4.68,4.68,0,0,0-2.694-.706,3.962,3.962,0,0,0-3.427,1.736,5.6,5.6,0,0,0-.814,1.836,8.963,8.963,0,0,0-.262,2.2,10.091,10.091,0,0,0,.226,2.134,5.675,5.675,0,0,0,.751,1.872,3.978,3.978,0,0,0,1.41,1.329,4.429,4.429,0,0,0,2.225.507,4.1,4.1,0,0,0,1.519-.271,3.785,3.785,0,0,0,1.2-.751,4.37,4.37,0,0,0,.868-1.13,5.647,5.647,0,0,0,.534-1.428H259.6a8.163,8.163,0,0,1-.633,1.781,5.1,5.1,0,0,1-1.094,1.474,5,5,0,0,1-1.646,1,6.329,6.329,0,0,1-2.269.371,5.536,5.536,0,0,1-2.568-.551,4.882,4.882,0,0,1-1.745-1.492,6.266,6.266,0,0,1-.986-2.18,10.862,10.862,0,0,1-.307-2.631,9.538,9.538,0,0,1,.461-3.164,5.671,5.671,0,0,1,1.275-2.125A4.818,4.818,0,0,1,252,23.572a7.5,7.5,0,0,1,2.4-.371,6.323,6.323,0,0,1,1.854.263,4.549,4.549,0,0,1,1.519.786,4.265,4.265,0,0,1,1.085,1.293,5.428,5.428,0,0,1,.588,1.781Z" transform="translate(-96.025 -8.971)" fill="#fff"/>
      <path id="Path_53" data-name="Path 53" d="M269.839,23.762h9.476V24.81h-4.123V36.782h-1.23V24.81h-4.123Z" transform="translate(-104.333 -9.188)" fill="#fff"/>
      <rect id="Rectangle_68" data-name="Rectangle 68" width="1.23" height="13.02" transform="translate(178.012 14.574)" fill="#fff"/>
      <path id="Path_54" data-name="Path 54" d="M297.22,23.762H298.5l3.924,11.573,3.906-11.573h1.284l-4.52,13.02h-1.357Z" transform="translate(-114.92 -9.188)" fill="#fff"/>
      <path id="Path_55" data-name="Path 55" d="M318.826,36.782V23.761h8.662V24.81h-7.433v4.7h6.709v1.049h-6.709v5.172h7.613v1.049Z" transform="translate(-123.274 -9.188)" fill="#fff"/>
    </g>
  </g>
</svg>
