<?xml version="1.0" encoding="UTF-8"?>
<!DOCTYPE svg PUBLIC "-//W3C//DTD SVG 1.1//EN" "http://www.w3.org/Graphics/SVG/1.1/DTD/svg11.dtd">
<svg version="1.1" xmlns="http://www.w3.org/2000/svg" xmlns:xlink="http://www.w3.org/1999/xlink" x="0" y="0" width="920" height="678.818" viewBox="0, 0, 920, 678.818">
  <g id="Livello_2">
    <g>
      <path d="M409.861,7.5 C456.574,7.5 482.849,45.077 474.091,94.215 C466.185,146.746 452.667,198.336 438.416,249.48 C470.687,238.428 503.175,227.904 536.166,219.2 C552.695,214.839 569.397,210.778 586.376,208.617 C635.076,199.859 672.318,226.134 672.318,272.847 C672.318,319.559 637.941,331.237 637.941,331.237 L351.471,331.237 L351.471,331.237 L351.471,42.186 C351.471,42.186 363.149,7.5 409.861,7.5 z" fill="#CE3C36"/>
      <path d="M409.861,7.5 C456.574,7.5 482.849,45.077 474.091,94.215 C466.185,146.746 452.667,198.336 438.416,249.48 C470.687,238.428 503.175,227.904 536.166,219.2 C552.695,214.839 569.397,210.778 586.376,208.617 C635.076,199.859 672.318,226.134 672.318,272.847 C672.318,319.559 637.941,331.237 637.941,331.237 L351.471,331.237 L351.471,331.237 L351.471,42.186 C351.471,42.186 363.149,7.5 409.861,7.5 z" fill-opacity="0" stroke="#000000" stroke-width="12" stroke-linejoin="round"/>
    </g>
    <g>
      <path d="M269.956,7.5 C223.244,7.5 196.968,45.077 205.727,94.215 C213.633,146.746 227.151,198.336 241.401,249.48 C209.131,238.428 176.643,227.904 143.652,219.2 C127.122,214.839 110.42,210.778 93.441,208.617 C44.741,199.859 7.5,226.134 7.5,272.847 C7.5,319.559 41.876,331.237 41.876,331.237 L328.347,331.237 L328.347,331.237 L328.347,42.186 C328.347,42.186 316.669,7.5 269.956,7.5 z" fill="#FFFFFF"/>
      <path d="M269.956,7.5 C223.244,7.5 196.968,45.077 205.727,94.215 C213.633,146.746 227.151,198.336 241.401,249.48 C209.131,238.428 176.643,227.904 143.652,219.2 C127.122,214.839 110.42,210.778 93.441,208.617 C44.741,199.859 7.5,226.134 7.5,272.847 C7.5,319.559 41.876,331.237 41.876,331.237 L328.347,331.237 L328.347,331.237 L328.347,42.186 C328.347,42.186 316.669,7.5 269.956,7.5 z" fill-opacity="0" stroke="#000000" stroke-width="12" stroke-linejoin="round"/>
    </g>
    <g>
      <path d="M269.956,672.318 C223.244,672.318 196.968,634.741 205.727,585.602 C213.633,533.071 227.151,481.481 241.401,430.338 C209.131,441.39 176.643,451.914 143.652,460.618 C127.123,464.979 110.42,469.039 93.441,471.201 C44.741,479.959 7.5,453.683 7.5,406.971 C7.5,360.259 41.876,348.58 41.876,348.581 L328.347,348.58 L328.347,348.58 L328.347,637.631 C328.347,637.631 316.669,672.318 269.956,672.318 z" fill="#0BC130"/>
      <path d="M269.956,672.318 C223.244,672.318 196.968,634.741 205.727,585.602 C213.633,533.071 227.151,481.481 241.401,430.338 C209.131,441.39 176.643,451.914 143.652,460.618 C127.123,464.979 110.42,469.039 93.441,471.201 C44.741,479.959 7.5,453.683 7.5,406.971 C7.5,360.259 41.876,348.58 41.876,348.581 L328.347,348.58 L328.347,348.58 L328.347,637.631 C328.347,637.631 316.669,672.318 269.956,672.318 z" fill-opacity="0" stroke="#000000" stroke-width="12" stroke-linejoin="round"/>
    </g>
    <g>
      <path d="M459.865,357.252 C514.94,357.252 559.588,401.252 559.588,455.529 C559.588,509.806 514.94,553.807 459.865,553.807 L438.667,553.807 L438.667,496.667 L461.31,495.996 L461.31,495.96 L462.755,495.996 C485.903,495.996 504.668,477.232 504.668,454.084 C504.668,430.936 485.903,412.172 462.755,412.172 C445.146,412.985 427.981,423.927 422.833,441.333 L420.667,441.333 L420.667,646.303 L360.142,646.303 L360.142,449.748 L360.346,449.748 C364.83,396.218 406.547,358.58 459.865,357.252 z" fill="#FFFFFF"/>
      <path d="M459.865,357.252 C514.94,357.252 559.588,401.252 559.588,455.529 C559.588,509.806 514.94,553.807 459.865,553.807 L438.667,553.807 L438.667,496.667 L461.31,495.996 L461.31,495.96 L462.755,495.996 C485.903,495.996 504.668,477.232 504.668,454.084 C504.668,430.936 485.903,412.172 462.755,412.172 C445.146,412.985 427.981,423.927 422.833,441.333 L420.667,441.333 L420.667,646.303 L360.142,646.303 L360.142,449.748 L360.346,449.748 C364.83,396.218 406.547,358.58 459.865,357.252 z" fill-opacity="0" stroke="#000000" stroke-width="12" stroke-linejoin="round"/>
    </g>
    <g>
      <path d="M715.675,646.303 L660.113,646.303 L660.124,646.213 C609.494,644.69 572.401,602.879 571.15,552.872 L571.15,357.252 L631.85,357.252 L631.85,555.792 L631.996,555.792 C633.521,575.686 649.993,590.332 669.427,590.828 L715.675,590.828 L715.675,646.303 z" fill="#FFFFFF"/>
      <path d="M715.675,646.303 L660.113,646.303 L660.124,646.213 C609.494,644.69 572.401,602.879 571.15,552.872 L571.15,357.252 L631.85,357.252 L631.85,555.792 L631.996,555.792 C633.521,575.686 649.993,590.332 669.427,590.828 L715.675,590.828 L715.675,646.303 z" fill-opacity="0" stroke="#000000" stroke-width="12" stroke-linejoin="round"/>
    </g>
    <g>
      <path d="M852.974,357.262 C866.201,357.086 879.235,359.255 891.996,362.505 L891.996,423.535 C879.998,417.242 866.41,414.834 852.974,414.498 C804.285,414.498 764.814,453.576 764.814,501.782 C764.814,549.988 804.285,589.067 852.974,589.067 C866.302,588.785 880.146,586.401 891.996,580.029 L891.996,641.06 C879.303,644.677 866.148,646.138 852.974,646.303 C772.357,646.303 707.004,581.599 707.004,501.782 C707.004,421.966 772.357,357.262 852.974,357.262 z" fill="#FFFFFF"/>
      <path d="M852.974,357.262 C866.201,357.086 879.235,359.255 891.996,362.505 L891.996,423.535 C879.998,417.242 866.41,414.834 852.974,414.498 C804.285,414.498 764.814,453.576 764.814,501.782 C764.814,549.988 804.285,589.067 852.974,589.067 C866.302,588.785 880.146,586.401 891.996,580.029 L891.996,641.06 C879.303,644.677 866.148,646.138 852.974,646.303 C772.357,646.303 707.004,581.599 707.004,501.782 C707.004,421.966 772.357,357.262 852.974,357.262 z" fill-opacity="0" stroke="#000000" stroke-width="12" stroke-linejoin="round"/>
    </g>
  </g>
</svg>
